<svg width="56" height="56" viewBox="0 0 56 56" fill="none" xmlns="http://www.w3.org/2000/svg">
<path d="M41.9996 14.9773V11.6663C41.9996 11.0475 41.7538 10.454 41.3162 10.0164C40.8786 9.57884 40.2851 9.33301 39.6663 9.33301H18.6663C18.0475 9.33301 17.454 9.57884 17.0164 10.0164C16.5788 10.454 16.333 11.0475 16.333 11.6663V14.9773C14.4826 21.1747 12.7093 23.9653 12.805 29.1663C12.9053 34.5937 14.8536 37.1627 18.4563 47.4877C18.6252 47.9312 18.9245 48.3131 19.3148 48.583C19.7051 48.8529 20.1681 48.9982 20.6426 48.9997H30.5103C31.0626 48.9994 31.5969 48.8033 32.0182 48.4461C32.4395 48.0889 32.7204 47.5938 32.811 47.049L33.833 40.9287L34.9343 47.539C35.0023 47.9476 35.2133 48.3188 35.5295 48.5863C35.8458 48.8538 36.2468 49.0003 36.661 48.9997H38.096C38.4511 48.9987 38.7976 48.8897 39.0893 48.6872C39.3811 48.4846 39.6043 48.1981 39.7293 47.8657C43.4043 37.3657 45.425 34.6357 45.5253 29.1687C45.6233 23.9537 43.8336 21.1187 41.9996 14.9773ZM39.6663 11.6663V13.9997H18.6663V11.6663H39.6663ZM37.69 46.6663H37.1533L34.9833 33.6417C34.9373 33.3698 34.7966 33.1231 34.586 32.9451C34.3754 32.7672 34.1087 32.6695 33.833 32.6695C33.5573 32.6695 33.2905 32.7672 33.0799 32.9451C32.8694 33.1231 32.7286 33.3698 32.6826 33.6417L30.5103 46.6663H20.6403C16.949 36.1663 15.2386 33.98 15.1383 29.1663C15.0426 24.5463 16.606 22.1313 18.342 16.333H39.9906C41.7173 22.0963 43.2806 24.5347 43.1943 29.1243C43.1056 33.9753 41.3696 36.1943 37.69 46.6663Z" fill="#393D46"/>
</svg>
