<svg width="56" height="56" viewBox="0 0 56 56" fill="none" xmlns="http://www.w3.org/2000/svg">
<path d="M14 39.184C14.0727 41.7797 14.8076 44.3138 16.135 46.5457C16.329 46.9328 16.6269 47.2582 16.9953 47.4857C17.3637 47.7132 17.7881 47.8337 18.221 47.8337H28.2544C28.7753 47.834 29.2813 47.6601 29.6919 47.3396C30.1025 47.0191 30.394 46.5704 30.52 46.065L31.5 42.145L32.48 46.065C32.6061 46.5704 32.8976 47.0191 33.3082 47.3396C33.7188 47.6601 34.2248 47.834 34.7457 47.8337H37.779C38.2129 47.8337 38.6382 47.7127 39.007 47.4843C39.3759 47.256 39.6739 46.9293 39.8674 46.541C41.1955 44.3113 41.9298 41.7783 42 39.184C42 32.3193 37.3334 30.1727 37.3334 27.5407C37.3334 24.274 42 23.7163 42 19.1267C42 14.159 37.3334 14.663 37.3334 11.576V10.5003C37.3334 9.88149 37.0875 9.288 36.65 8.85041C36.2124 8.41283 35.6189 8.16699 35 8.16699H32.6667C32.0479 8.16699 31.4544 8.41283 31.0168 8.85041C30.5792 9.288 30.3334 9.88149 30.3334 10.5003V11.9003C30.3338 12.3551 30.2217 12.8029 30.0072 13.2039C29.7927 13.6049 29.4823 13.9466 29.1037 14.1987C28.6894 14.4745 28.3176 14.8093 28 15.1927C27.6825 14.8093 27.3107 14.4745 26.8964 14.1987C26.5178 13.9466 26.2074 13.6049 25.9929 13.2039C25.7783 12.8029 25.6663 12.3551 25.6667 11.9003V10.5003C25.6667 9.88149 25.4209 9.288 24.9833 8.85041C24.5457 8.41283 23.9522 8.16699 23.3334 8.16699H21C20.3812 8.16699 19.7877 8.41283 19.3501 8.85041C18.9125 9.288 18.6667 9.88149 18.6667 10.5003V11.576C18.6683 12.088 18.5266 12.5903 18.2578 13.0261C17.989 13.462 17.6037 13.8139 17.1454 14.0423C16.1976 14.5121 15.4005 15.2382 14.8445 16.1381C14.2886 17.0381 13.996 18.0758 14 19.1337C14 23.6697 18.6667 24.3277 18.6667 27.5873C18.6667 30.0793 14 32.373 14 39.184ZM16.3334 19.1173C16.3334 15.4447 21 16.42 21 11.5667V10.5003H23.3334V11.9003C23.3321 12.7396 23.5388 13.566 23.935 14.3059C24.3312 15.0457 24.9045 15.6759 25.6037 16.14C25.9816 16.3916 26.2916 16.7325 26.5061 17.1327C26.7206 17.5328 26.833 17.9797 26.8334 18.4337C26.8334 18.7431 26.9563 19.0398 27.1751 19.2586C27.3939 19.4774 27.6906 19.6003 28 19.6003C28.3095 19.6003 28.6062 19.4774 28.825 19.2586C29.0438 19.0398 29.1667 18.7431 29.1667 18.4337C29.1663 17.9789 29.2783 17.5311 29.4929 17.1301C29.7074 16.7291 30.0178 16.3873 30.3964 16.1353C31.0949 15.6716 31.6678 15.0422 32.064 14.3033C32.4601 13.5643 32.6672 12.7388 32.6667 11.9003V10.5003H35V11.576C35 16.476 39.6667 15.4213 39.6667 19.1267C39.6667 22.4213 35 22.9487 35 27.5803C35 31.6753 39.6667 32.7627 39.6667 39.184C39.5869 41.4157 38.9379 43.59 37.7814 45.5003H34.748L32.634 37.0513C32.5467 36.822 32.3917 36.6246 32.1896 36.4853C31.9875 36.346 31.7478 36.2714 31.5024 36.2714C31.2569 36.2714 31.0173 36.346 30.8152 36.4853C30.6131 36.6246 30.4581 36.822 30.3707 37.0513L28.2544 45.5003H18.221C17.0641 43.59 16.4144 41.4158 16.3334 39.184C16.3334 32.828 21 31.6963 21 27.5407C21 22.9113 16.3334 22.4587 16.3334 19.1337V19.1173Z" fill="#393D46"/>
</svg>
