<svg width="56" height="56" viewBox="0 0 56 56" fill="none" xmlns="http://www.w3.org/2000/svg">
<path d="M36.1665 8.167H19.6931C19.0986 8.16585 18.526 8.39173 18.0923 8.7985C17.6587 9.20526 17.3967 9.76224 17.3598 10.3557L15.1711 45.3557C15.151 45.6742 15.1965 45.9935 15.3047 46.2938C15.4129 46.5941 15.5816 46.869 15.8003 47.1015C16.019 47.3339 16.2831 47.5191 16.5762 47.6454C16.8694 47.7718 17.1853 47.8366 17.5045 47.836H22.2761C22.8285 47.8357 23.3628 47.6396 23.784 47.2824C24.2053 46.9252 24.4862 46.4302 24.5768 45.8853L27.9298 25.765L31.2828 45.8853C31.3739 46.4297 31.655 46.9242 32.0762 47.2809C32.4975 47.6377 33.0315 47.8335 33.5835 47.8337H38.3551C38.6741 47.8343 38.9898 47.7695 39.2828 47.6433C39.5757 47.5171 39.8397 47.3321 40.0584 47.0999C40.2771 46.8677 40.4458 46.5931 40.5542 46.2931C40.6625 45.9931 40.7082 45.674 40.6885 45.3557L38.4998 10.3557C38.4629 9.76224 38.2009 9.20526 37.7673 8.7985C37.3336 8.39173 36.761 8.16585 36.1665 8.167ZM36.1665 10.5003L36.4231 14.6093C35.6295 14.2555 34.9557 13.6789 34.4835 12.9495C34.0113 12.2201 33.761 11.3692 33.7631 10.5003H36.1665ZM22.0965 10.5003C22.0983 11.3692 21.8479 12.2199 21.3757 12.9492C20.9036 13.6786 20.2299 14.2553 19.4365 14.6093L19.6931 10.5003H22.0965ZM33.5835 45.5003L29.0801 18.4757C29.0342 18.2038 28.8934 17.9571 28.6828 17.7791C28.4723 17.6012 28.2055 17.5035 27.9298 17.5035C27.6541 17.5035 27.3873 17.6012 27.1768 17.7791C26.9662 17.9571 26.8254 18.2038 26.7795 18.4757L22.2761 45.5003H17.5045L19.2685 17.302C20.7162 16.8241 21.9848 15.918 22.9064 14.7035C23.828 13.489 24.3592 12.0233 24.4298 10.5003H26.7631V14.0003C26.7631 14.3097 26.8861 14.6065 27.1048 14.8253C27.3236 15.0441 27.6204 15.167 27.9298 15.167C28.2392 15.167 28.536 15.0441 28.7548 14.8253C28.9736 14.6065 29.0965 14.3097 29.0965 14.0003V10.5003H31.4298C31.5004 12.0233 32.0316 13.489 32.9532 14.7035C33.8748 15.918 35.1434 16.8241 36.5911 17.302L38.3551 45.5003H33.5835Z" fill="#393D46"/>
</svg>
