<svg width="1078" height="100" viewBox="0 0 1078 100" fill="none" xmlns="http://www.w3.org/2000/svg">
<path d="M81.575 44.0804C84.1777 44.6351 86.2683 45.9364 87.847 47.9844C89.4257 49.9898 90.215 52.2938 90.215 54.8964C90.215 58.6511 88.8923 61.6378 86.247 63.8564C83.6443 66.0324 79.9963 67.1204 75.303 67.1204H54.375V22.1924H74.599C79.1643 22.1924 82.727 23.2378 85.287 25.3284C87.8897 27.4191 89.191 30.2564 89.191 33.8404C89.191 36.4858 88.487 38.6831 87.079 40.4324C85.7137 42.1818 83.879 43.3978 81.575 44.0804ZM65.319 40.3684H72.487C74.279 40.3684 75.6443 39.9844 76.583 39.2164C77.5643 38.4058 78.055 37.2324 78.055 35.6964C78.055 34.1604 77.5643 32.9871 76.583 32.1764C75.6443 31.3658 74.279 30.9604 72.487 30.9604H65.319V40.3684ZM73.383 58.2884C75.2177 58.2884 76.6257 57.8831 77.607 57.0724C78.631 56.2191 79.143 55.0031 79.143 53.4244C79.143 51.8458 78.6097 50.6084 77.543 49.7124C76.519 48.8164 75.0897 48.3684 73.255 48.3684H65.319V58.2884H73.383Z" fill="#9F9F9F"/>
<path d="M94.3865 49.2004C94.3865 45.5311 95.0692 42.3098 96.4345 39.5364C97.8425 36.7631 99.7412 34.6298 102.131 33.1364C104.52 31.6431 107.187 30.8964 110.131 30.8964C112.648 30.8964 114.845 31.4084 116.722 32.4324C118.643 33.4564 120.115 34.8004 121.139 36.4644V31.4084H132.083V67.1204H121.139V62.0644C120.072 63.7284 118.579 65.0725 116.659 66.0965C114.781 67.1205 112.584 67.6325 110.067 67.6325C107.165 67.6325 104.52 66.8858 102.131 65.3924C99.7412 63.8564 97.8425 61.7018 96.4345 58.9284C95.0692 56.1124 94.3865 52.8698 94.3865 49.2004ZM121.139 49.2645C121.139 46.5338 120.371 44.3791 118.835 42.8004C117.341 41.2218 115.507 40.4324 113.331 40.4324C111.155 40.4324 109.299 41.2218 107.763 42.8004C106.269 44.3364 105.522 46.4698 105.522 49.2004C105.522 51.9311 106.269 54.1071 107.763 55.7284C109.299 57.3071 111.155 58.0965 113.331 58.0965C115.507 58.0965 117.341 57.3071 118.835 55.7284C120.371 54.1498 121.139 51.9951 121.139 49.2645Z" fill="#9F9F9F"/>
<path d="M145.44 27.6964C143.52 27.6964 141.941 27.1418 140.704 26.0324C139.509 24.8804 138.912 23.4724 138.912 21.8084C138.912 20.1018 139.509 18.6938 140.704 17.5844C141.941 16.4324 143.52 15.8564 145.44 15.8564C147.317 15.8564 148.853 16.4324 150.048 17.5844C151.285 18.6938 151.904 20.1018 151.904 21.8084C151.904 23.4724 151.285 24.8804 150.048 26.0324C148.853 27.1418 147.317 27.6964 145.44 27.6964ZM150.944 71.7285C150.944 76.1231 149.835 79.2804 147.616 81.2004C145.397 83.1631 142.304 84.1444 138.336 84.1444H134.048V74.8644H136.672C137.867 74.8644 138.72 74.6298 139.232 74.1604C139.744 73.6911 140 72.9231 140 71.8564V31.4084H150.944V71.7285Z" fill="#9F9F9F"/>
<path d="M194.077 31.4084V67.1204H183.133V62.2564C182.023 63.8351 180.509 65.1151 178.589 66.0965C176.711 67.0351 174.62 67.5044 172.316 67.5044C169.586 67.5044 167.175 66.9071 165.085 65.7124C162.994 64.4751 161.372 62.7044 160.22 60.4004C159.068 58.0964 158.493 55.3871 158.493 52.2724V31.4084H169.372V50.8004C169.372 53.1898 169.991 55.0458 171.229 56.3684C172.466 57.6911 174.13 58.3524 176.221 58.3524C178.354 58.3524 180.039 57.6911 181.277 56.3684C182.514 55.0458 183.133 53.1898 183.133 50.8004V31.4084H194.077Z" fill="#9F9F9F"/>
<path d="M237.202 31.4084V67.1204H226.258V62.2564C225.148 63.8351 223.634 65.1151 221.714 66.0965C219.836 67.0351 217.745 67.5044 215.441 67.5044C212.711 67.5044 210.3 66.9071 208.21 65.7124C206.119 64.4751 204.498 62.7044 203.346 60.4004C202.194 58.0964 201.617 55.3871 201.617 52.2724V31.4084H212.497V50.8004C212.497 53.1898 213.116 55.0458 214.354 56.3684C215.591 57.6911 217.255 58.3524 219.346 58.3524C221.479 58.3524 223.164 57.6911 224.402 56.3684C225.639 55.0458 226.258 53.1898 226.258 50.8004V31.4084H237.202Z" fill="#9F9F9F"/>
<path d="M356.754 63.7205C357.394 64.7018 358.055 65.4911 358.738 66.0884C359.42 66.6858 360.295 67.1978 361.362 67.6245V68.9044C358.375 68.7764 355.047 68.7124 351.378 68.7124C348.562 68.7124 345.852 68.7764 343.25 68.9044V67.6245C344.444 67.5391 345.298 67.4111 345.81 67.2404C346.364 67.0698 346.642 66.7711 346.642 66.3444C346.642 66.0031 346.407 65.4698 345.938 64.7444L336.658 49.7044C335.804 48.3391 335.079 47.4218 334.482 46.9524C333.927 46.4831 333.159 46.2058 332.178 46.1204V62.1204C332.178 63.7418 332.284 64.9151 332.498 65.6404C332.754 66.3658 333.202 66.8564 333.842 67.1124C334.482 67.3684 335.527 67.5391 336.978 67.6245V68.9044C334.674 68.7764 331.452 68.7124 327.314 68.7124C322.748 68.7124 319.378 68.7764 317.202 68.9044V67.6245C318.61 67.5391 319.634 67.3684 320.274 67.1124C320.956 66.8564 321.404 66.3658 321.618 65.6404C321.874 64.9151 322.002 63.7418 322.002 62.1204V30.3764C322.002 28.7551 321.874 27.5818 321.618 26.8564C321.404 26.1311 320.956 25.6404 320.274 25.3844C319.634 25.1284 318.61 24.9578 317.202 24.8724V23.5924C319.378 23.7204 322.748 23.7844 327.314 23.7844C331.452 23.7844 334.674 23.7204 336.978 23.5924V24.8724C335.527 24.9578 334.482 25.1284 333.842 25.3844C333.202 25.6404 332.754 26.1311 332.498 26.8564C332.284 27.5818 332.178 28.7551 332.178 30.3764V44.7764C333.884 44.6911 335.442 44.1791 336.85 43.2404C338.258 42.3018 339.858 40.8084 341.65 38.7604L345.426 34.2164C347.388 31.9551 348.37 29.9711 348.37 28.2644C348.37 27.2404 347.943 26.4298 347.09 25.8324C346.279 25.2351 345.127 24.8938 343.634 24.8084V23.5924C346.748 23.7204 349.906 23.7844 353.106 23.7844C355.58 23.7844 357.586 23.7204 359.122 23.5924V24.8084C355.708 25.6191 352.615 27.6671 349.842 30.9524L341.842 40.4884L356.754 63.7205Z" fill="#9F9F9F"/>
<path d="M370.697 69.3525C367.966 69.3525 365.918 68.6484 364.553 67.2404C363.23 65.8324 362.569 63.9764 362.569 61.6724C362.569 59.7524 363.06 58.1738 364.041 56.9364C365.065 55.6564 366.281 54.6751 367.689 53.9924C369.14 53.3098 370.974 52.5844 373.193 51.8164C375.54 51.0058 377.246 50.2805 378.313 49.6404C379.422 48.9578 379.977 48.0404 379.977 46.8884V41.8964C379.977 40.1044 379.55 38.7178 378.697 37.7364C377.886 36.7124 376.606 36.2004 374.857 36.2004C372.809 36.2004 371.252 36.7124 370.185 37.7364C371.38 38.1631 372.297 38.8031 372.937 39.6564C373.62 40.5098 373.961 41.5124 373.961 42.6644C373.961 44.1151 373.47 45.2671 372.489 46.1204C371.508 46.9738 370.313 47.4004 368.905 47.4004C367.412 47.4004 366.26 46.9311 365.449 45.9924C364.638 45.0538 364.233 43.8804 364.233 42.4724C364.233 41.2778 364.51 40.2751 365.065 39.4644C365.662 38.6111 366.558 37.8218 367.753 37.0964C368.905 36.4138 370.313 35.8804 371.977 35.4964C373.684 35.1124 375.54 34.9204 377.545 34.9204C379.636 34.9204 381.449 35.1338 382.985 35.5604C384.521 35.9871 385.801 36.7124 386.825 37.7364C387.764 38.6751 388.382 39.8271 388.681 41.1924C389.022 42.5578 389.193 44.4138 389.193 46.7604V64.1684C389.193 65.1924 389.278 65.9178 389.449 66.3444C389.662 66.7711 390.046 66.9845 390.601 66.9845C391.241 66.9845 392.009 66.6218 392.905 65.8965L393.545 66.9845C391.625 68.5631 389.278 69.3525 386.505 69.3525C384.158 69.3525 382.516 68.8831 381.577 67.9445C380.638 67.0058 380.148 65.7471 380.105 64.1684C377.972 67.6244 374.836 69.3525 370.697 69.3525ZM375.625 65.2565C377.289 65.2565 378.74 64.3818 379.977 62.6325V49.5125C379.465 50.3658 378.377 51.3044 376.713 52.3284C375.049 53.3951 373.79 54.4618 372.937 55.5285C372.084 56.5951 371.657 58.1311 371.657 60.1364C371.657 61.8858 372.02 63.1871 372.745 64.0405C373.47 64.8511 374.43 65.2565 375.625 65.2565Z" fill="#9F9F9F"/>
<path d="M408.366 35.8164H415.918V37.0964H408.366V62.9524C408.366 64.2324 408.579 65.1498 409.006 65.7044C409.475 66.2164 410.201 66.4725 411.182 66.4725C413.017 66.4725 414.467 65.1925 415.534 62.6325L416.622 63.2085C415.001 67.6031 412.078 69.8004 407.854 69.8004C405.038 69.8004 402.905 69.0751 401.454 67.6245C400.558 66.7285 399.939 65.6191 399.598 64.2964C399.299 62.9311 399.15 61.0751 399.15 58.7284V37.0964H393.774V35.8164H399.15V27.3684C402.691 27.3684 405.763 26.6858 408.366 25.3204V35.8164Z" fill="#9F9F9F"/>
<path d="M430.866 40.8724C432.786 36.9044 436.263 34.9204 441.298 34.9204C444.626 34.9204 446.973 35.7524 448.338 37.4164C449.063 38.2271 449.575 39.2938 449.874 40.6164C450.215 41.8964 450.386 43.6031 450.386 45.7364V62.9524C450.386 64.7018 450.685 65.9178 451.282 66.6004C451.879 67.2404 452.946 67.5604 454.482 67.5604V68.9044C450.045 68.7338 447.229 68.6484 446.034 68.6484C444.583 68.6484 441.81 68.7338 437.714 68.9044V67.5604C438.994 67.5604 439.89 67.2404 440.402 66.6004C440.914 65.9178 441.17 64.7018 441.17 62.9524V43.0484C441.17 41.2991 440.871 39.9764 440.274 39.0804C439.719 38.1844 438.695 37.7364 437.202 37.7364C435.41 37.7364 433.895 38.4404 432.658 39.8484C431.463 41.2138 430.866 42.9631 430.866 45.0964V62.9524C430.866 64.7018 431.122 65.9178 431.634 66.6004C432.146 67.2404 433.042 67.5604 434.322 67.5604V68.9044C430.226 68.7338 427.581 68.6484 426.386 68.6484C424.935 68.6484 421.991 68.7338 417.554 68.9044V67.5604C419.047 67.5604 420.093 67.2404 420.69 66.6004C421.33 65.9178 421.65 64.7018 421.65 62.9524V26.5364C421.65 24.5738 421.33 23.1444 420.69 22.2484C420.093 21.3524 419.047 20.9044 417.554 20.9044V19.5604C418.919 19.6884 420.242 19.7524 421.522 19.7524C425.234 19.7524 428.349 19.4538 430.866 18.8564V40.8724Z" fill="#9F9F9F"/>
<path d="M473.324 34.9204C478.23 34.9204 482.07 36.3284 484.844 39.1444C487.617 41.9178 489.004 46.3338 489.004 52.3924C489.004 58.4511 487.617 62.8671 484.844 65.6404C482.07 68.4138 478.23 69.8004 473.324 69.8004C468.46 69.8004 464.62 68.4138 461.804 65.6404C459.03 62.8671 457.644 58.4511 457.644 52.3924C457.644 46.3338 459.03 41.9178 461.804 39.1444C464.62 36.3284 468.46 34.9204 473.324 34.9204ZM473.324 36.2004C471.489 36.2004 470.017 37.5444 468.908 40.2324C467.841 42.8778 467.308 46.9311 467.308 52.3924C467.308 57.8538 467.841 61.9071 468.908 64.5524C470.017 67.1978 471.489 68.5205 473.324 68.5205C475.201 68.5205 476.673 67.2191 477.74 64.6164C478.806 61.9711 479.34 57.8964 479.34 52.3924C479.34 46.8884 478.785 42.8138 477.676 40.1684C476.609 37.5231 475.158 36.2004 473.324 36.2004Z" fill="#9F9F9F"/>
<path d="M509.639 34.9204C511.218 34.9204 512.711 35.0911 514.119 35.4324C515.527 35.7738 516.7 36.2431 517.639 36.8404C518.748 37.5231 519.602 38.3978 520.199 39.4644C520.839 40.4884 521.159 41.6191 521.159 42.8564C521.159 44.3498 520.69 45.5871 519.751 46.5684C518.812 47.5071 517.596 47.9764 516.103 47.9764C514.61 47.9764 513.415 47.5498 512.519 46.6964C511.623 45.8431 511.175 44.6911 511.175 43.2404C511.175 41.9604 511.58 40.8511 512.391 39.9124C513.202 38.9738 514.204 38.3338 515.399 37.9924C515.058 37.5231 514.524 37.1604 513.799 36.9044C513.116 36.6058 512.37 36.4564 511.559 36.4564C508.999 36.4564 506.994 37.8644 505.543 40.6804C504.135 43.4538 503.431 47.1018 503.431 51.6245C503.431 56.1898 504.242 59.4751 505.863 61.4804C507.484 63.4858 509.511 64.4884 511.943 64.4884C513.394 64.4884 514.844 64.1044 516.295 63.3364C517.788 62.5684 519.132 61.2245 520.327 59.3045L521.415 59.6884C520.562 62.4618 519.068 64.8511 516.935 66.8564C514.802 68.8191 512.05 69.8004 508.679 69.8004C504.284 69.8004 500.7 68.3498 497.927 65.4484C495.154 62.5471 493.767 58.2378 493.767 52.5204C493.767 48.7658 494.45 45.5658 495.815 42.9204C497.18 40.2751 499.058 38.2911 501.447 36.9684C503.836 35.6031 506.567 34.9204 509.639 34.9204Z" fill="#9F9F9F"/>
<path d="M607.415 49.0439V66.8564H601.415V21.3564H618.196C623.175 21.3564 627.071 22.6273 629.884 25.1689C632.717 27.7106 634.134 31.0752 634.134 35.2627C634.134 39.6794 632.748 43.0856 629.978 45.4814C627.228 47.8564 623.28 49.0439 618.134 49.0439H607.415ZM607.415 44.1377H618.196C621.405 44.1377 623.863 43.3877 625.571 41.8877C627.28 40.3669 628.134 38.1794 628.134 35.3252C628.134 32.6169 627.28 30.4502 625.571 28.8252C623.863 27.2002 621.519 26.3564 618.54 26.2939H607.415V44.1377Z" fill="#9F9F9F"/>
<path d="M654.478 67.4814C649.894 67.4814 646.165 65.9814 643.29 62.9814C640.415 59.9606 638.978 55.9294 638.978 50.8877V49.8252C638.978 46.471 639.613 43.4814 640.884 40.8564C642.175 38.2106 643.967 36.1481 646.259 34.6689C648.571 33.1689 651.071 32.4189 653.759 32.4189C658.155 32.4189 661.571 33.8669 664.009 36.7627C666.446 39.6585 667.665 43.8044 667.665 49.2002V51.6064H644.759C644.842 54.9398 645.811 57.6377 647.665 59.7002C649.54 61.7419 651.915 62.7627 654.79 62.7627C656.832 62.7627 658.561 62.346 659.978 61.5127C661.394 60.6794 662.634 59.5752 663.696 58.2002L667.228 60.9502C664.394 65.3044 660.144 67.4814 654.478 67.4814ZM653.759 37.1689C651.425 37.1689 649.467 38.0231 647.884 39.7314C646.3 41.4189 645.321 43.7939 644.946 46.8564H661.884V46.4189C661.717 43.4814 660.925 41.2106 659.509 39.6064C658.092 37.9814 656.175 37.1689 653.759 37.1689Z" fill="#9F9F9F"/>
<path d="M690.728 38.2314C689.853 38.0856 688.905 38.0127 687.884 38.0127C684.092 38.0127 681.519 39.6273 680.165 42.8564V66.8564H674.384V33.0439H680.009L680.103 36.9502C681.998 33.9294 684.686 32.4189 688.165 32.4189C689.29 32.4189 690.144 32.5648 690.728 32.8564V38.2314Z" fill="#9F9F9F"/>
<path d="M701.54 33.0439L701.728 37.2939C704.311 34.0439 707.686 32.4189 711.853 32.4189C718.998 32.4189 722.603 36.4502 722.665 44.5127V66.8564H716.884V44.4814C716.863 42.0439 716.3 40.2419 715.196 39.0752C714.113 37.9085 712.415 37.3252 710.103 37.3252C708.228 37.3252 706.582 37.8252 705.165 38.8252C703.748 39.8252 702.644 41.1377 701.853 42.7627V66.8564H696.071V33.0439H701.54Z" fill="#9F9F9F"/>
<path d="M737.665 66.8564H731.884V33.0439H737.665V66.8564ZM731.415 24.0752C731.415 23.1377 731.696 22.346 732.259 21.7002C732.842 21.0544 733.696 20.7314 734.821 20.7314C735.946 20.7314 736.8 21.0544 737.384 21.7002C737.967 22.346 738.259 23.1377 738.259 24.0752C738.259 25.0127 737.967 25.7939 737.384 26.4189C736.8 27.0439 735.946 27.3564 734.821 27.3564C733.696 27.3564 732.842 27.0439 732.259 26.4189C731.696 25.7939 731.415 25.0127 731.415 24.0752Z" fill="#9F9F9F"/>
<path d="M756.384 51.2002L752.759 54.9814V66.8564H746.978V18.8564H752.759V47.8877L755.853 44.1689L766.384 33.0439H773.415L760.259 47.1689L774.946 66.8564H768.165L756.384 51.2002Z" fill="#9F9F9F"/>
<path d="M880.738 33.9604C880.44 31.6991 879.821 29.7364 878.882 28.0724C877.944 26.3658 876.685 25.0644 875.106 24.1684C873.57 23.2298 871.714 22.7604 869.538 22.7604C867.448 22.7604 865.698 23.3578 864.29 24.5524C862.925 25.7471 862.242 27.2191 862.242 28.9684C862.242 30.4191 862.648 31.6778 863.458 32.7444C864.312 33.8111 865.528 34.7924 867.106 35.6884C868.685 36.5418 870.562 37.4378 872.738 38.3764C874.36 39.0591 876.002 39.8271 877.666 40.6804C879.33 41.4911 880.866 42.4724 882.274 43.6244C883.682 44.7764 884.813 46.1204 885.666 47.6564C886.562 49.1498 887.01 50.9418 887.01 53.0324C887.01 55.5071 886.349 57.7044 885.026 59.6244C883.746 61.5444 881.912 63.0378 879.522 64.1044C877.133 65.1711 874.317 65.7044 871.074 65.7044C869.282 65.7044 867.384 65.4271 865.378 64.8724C863.373 64.3604 861.538 63.5711 859.874 62.5044L860.066 65.2564H855.714L855.586 50.7284H859.234C859.704 54.3551 861.048 57.1071 863.266 58.9844C865.485 60.8191 868.152 61.7364 871.266 61.7364C872.845 61.7364 874.253 61.4591 875.49 60.9044C876.728 60.3071 877.688 59.5178 878.37 58.5364C879.096 57.5124 879.458 56.3604 879.458 55.0804C879.458 53.4164 878.946 52.0511 877.922 50.9844C876.898 49.9178 875.597 49.0004 874.018 48.2324C872.44 47.4644 870.797 46.7178 869.09 45.9924C867.17 45.1818 865.357 44.3284 863.65 43.4324C861.944 42.4938 860.429 41.4484 859.106 40.2964C857.826 39.1018 856.802 37.7364 856.034 36.2004C855.309 34.6644 854.946 32.8511 854.946 30.7604C854.946 29.5231 855.181 28.2218 855.65 26.8564C856.12 25.4484 856.888 24.1471 857.954 22.9524C859.064 21.7578 860.536 20.7764 862.37 20.0084C864.205 19.2404 866.488 18.8564 869.218 18.8564C870.925 18.8564 872.781 19.1124 874.786 19.6244C876.834 20.0938 878.626 20.8831 880.162 21.9924L879.906 19.3044H884.322V33.9604H880.738Z" fill="#9F9F9F"/>
<path d="M890.921 81.0005V77.6084C892.158 77.6084 893.033 77.3311 893.545 76.7764C894.099 76.2644 894.441 75.5178 894.569 74.5364C894.697 73.5551 894.761 72.4458 894.761 71.2084L894.825 42.8564C894.825 42.0884 894.825 41.2778 894.825 40.4244C894.867 39.5711 894.953 38.6964 895.081 37.8004C894.355 37.8431 893.545 37.8858 892.649 37.9284C891.795 37.9711 891.091 38.0138 890.537 38.0564V33.8964C892.499 33.8964 894.078 33.8111 895.273 33.6404C896.51 33.4271 897.449 33.1711 898.089 32.8724C898.771 32.5738 899.262 32.2964 899.561 32.0404H902.313C902.398 32.4671 902.462 32.9791 902.505 33.5764C902.547 34.1738 902.59 34.7284 902.633 35.2404C904.041 34.0031 905.534 33.1071 907.113 32.5524C908.691 31.9551 910.206 31.6564 911.657 31.6564C914.217 31.6564 916.499 32.3178 918.505 33.6404C920.51 34.9204 922.089 36.7764 923.241 39.2084C924.393 41.5978 924.969 44.4351 924.969 47.7204C924.969 51.2191 924.265 54.3338 922.857 57.0644C921.491 59.7524 919.614 61.8644 917.225 63.4004C914.835 64.9364 912.083 65.7044 908.969 65.7044C907.689 65.7044 906.537 65.5551 905.513 65.2564C904.489 65.0004 903.529 64.6591 902.633 64.2324V71.8484C902.633 72.5311 902.611 73.3418 902.569 74.2804C902.569 75.2618 902.505 76.2004 902.377 77.0964C903.059 77.0111 903.785 76.9471 904.553 76.9044C905.321 76.9044 905.961 76.9044 906.473 76.9044V81.0005H890.921ZM908.265 61.6724C910.227 61.6298 911.806 61.0324 913.001 59.8804C914.238 58.6858 915.134 57.1071 915.689 55.1444C916.243 53.1818 916.521 51.0484 916.521 48.7444C916.521 46.6538 916.243 44.6698 915.689 42.7924C915.177 40.9151 914.345 39.4004 913.193 38.2484C912.041 37.0964 910.505 36.5204 908.585 36.5204C907.39 36.5631 906.259 36.8618 905.193 37.4164C904.169 37.9711 903.315 38.6964 902.633 39.5924C902.633 40.5311 902.633 41.4911 902.633 42.4724C902.633 43.4538 902.633 44.4991 902.633 45.6084C902.633 46.7178 902.633 47.9764 902.633 49.3844C902.633 50.7498 902.633 52.3071 902.633 54.0564C902.633 55.8058 902.633 57.8111 902.633 60.0724C903.315 60.5418 904.147 60.9258 905.129 61.2244C906.11 61.5231 907.155 61.6724 908.265 61.6724Z" fill="#9F9F9F"/>
<path d="M948.304 64.6804C948.176 64.0404 948.09 63.5071 948.048 63.0804C948.048 62.6111 948.026 62.0778 947.984 61.4804C946.533 62.9311 944.976 63.9978 943.312 64.6804C941.69 65.3631 940.005 65.7044 938.256 65.7044C935.354 65.7044 933.114 64.9151 931.536 63.3364C930 61.7578 929.232 59.8164 929.232 57.5124C929.232 55.4644 929.786 53.7364 930.896 52.3284C932.005 50.8778 933.456 49.7044 935.248 48.8084C937.04 47.8698 939.024 47.1658 941.2 46.6964C943.376 46.1844 945.53 45.9071 947.664 45.8644V42.3444C947.664 41.1071 947.514 39.9764 947.216 38.9524C946.96 37.8858 946.469 37.0538 945.744 36.4564C945.018 35.8164 943.952 35.4964 942.544 35.4964C941.605 35.5391 940.645 35.7524 939.664 36.1364C938.725 36.4778 937.978 37.0324 937.424 37.8004C937.765 38.1844 937.978 38.6111 938.064 39.0804C938.149 39.5071 938.192 39.8911 938.192 40.2324C938.192 41.0004 937.893 41.8111 937.296 42.6644C936.698 43.4751 935.738 43.8591 934.416 43.8164C933.264 43.7738 932.368 43.3684 931.728 42.6004C931.13 41.8324 930.832 40.9151 930.832 39.8484C930.832 38.2271 931.408 36.8191 932.56 35.6244C933.754 34.3871 935.354 33.4271 937.36 32.7444C939.365 32.0191 941.605 31.6564 944.08 31.6564C947.749 31.6564 950.565 32.6164 952.528 34.5364C954.49 36.4564 955.45 39.5284 955.408 43.7524C955.408 45.2458 955.408 46.6111 955.408 47.8484C955.408 49.0431 955.386 50.2591 955.344 51.4964C955.344 52.6911 955.344 54.0351 955.344 55.5284C955.344 56.1684 955.322 56.9791 955.28 57.9604C955.237 58.8991 955.173 59.8378 955.088 60.7764C955.856 60.6911 956.624 60.6484 957.392 60.6484C958.202 60.6058 958.864 60.5631 959.376 60.5204V64.6804H948.304ZM947.6 49.6404C946.32 49.7258 945.061 49.9391 943.824 50.2804C942.586 50.5791 941.477 51.0058 940.496 51.5604C939.514 52.1151 938.725 52.8191 938.128 53.6724C937.573 54.4831 937.317 55.4218 937.36 56.4884C937.402 57.8111 937.829 58.7924 938.64 59.4324C939.45 60.0298 940.389 60.3284 941.456 60.3284C942.693 60.3284 943.802 60.0724 944.784 59.5604C945.808 59.0484 946.746 58.3658 947.6 57.5124C947.6 57.0858 947.6 56.6378 947.6 56.1684C947.6 55.6991 947.6 55.2298 947.6 54.7604C947.6 54.1631 947.6 53.4164 947.6 52.5204C947.6 51.6244 947.6 50.6644 947.6 49.6404Z" fill="#9F9F9F"/>
<path d="M975.478 65.7044C974.284 65.7044 973.11 65.5551 971.958 65.2564C970.849 64.9578 969.825 64.4031 968.886 63.5924C967.99 62.7818 967.265 61.5871 966.71 60.0084C966.156 58.3871 965.878 56.2538 965.878 53.6084L966.006 37.0964L961.462 37.1604V32.6804C962.742 32.6378 963.98 32.2111 965.174 31.4004C966.369 30.5471 967.414 29.4378 968.31 28.0724C969.206 26.7071 969.804 25.2564 970.102 23.7204H974.006L973.942 32.6804H982.966V36.7764L973.942 36.9684L973.878 53.4164C973.878 54.6964 973.985 55.8911 974.198 57.0004C974.454 58.0671 974.881 58.9204 975.478 59.5604C976.118 60.2004 976.972 60.5204 978.038 60.5204C978.849 60.5204 979.766 60.2644 980.79 59.7524C981.857 59.2404 982.924 58.2164 983.99 56.6804L986.614 59.0484C985.548 60.6698 984.438 61.9284 983.286 62.8244C982.177 63.7204 981.089 64.3818 980.022 64.8084C978.998 65.2351 978.081 65.4911 977.27 65.5764C976.46 65.6618 975.862 65.7044 975.478 65.7044Z" fill="#9F9F9F"/>
<path d="M1002.19 65.7044C999.711 65.7044 997.684 65.2351 996.105 64.2964C994.569 63.3578 993.439 61.8644 992.713 59.8164C991.988 57.7258 991.625 54.9951 991.625 51.6244V42.9204C991.625 42.1951 991.647 41.3844 991.689 40.4884C991.732 39.5924 991.775 38.6964 991.817 37.8004C991.135 37.8431 990.367 37.8858 989.513 37.9284C988.66 37.9284 987.956 37.9498 987.401 37.9924V33.8964H988.489C990.836 33.8964 992.649 33.7044 993.929 33.3204C995.252 32.8938 996.148 32.4671 996.617 32.0404H999.561V51.6244C999.561 54.6964 999.967 56.9791 1000.78 58.4724C1001.63 59.9658 1003 60.7124 1004.87 60.7124C1006.15 60.6698 1007.41 60.2858 1008.65 59.5604C1009.93 58.8351 1010.95 57.9818 1011.72 57.0004V43.1764C1011.72 42.3231 1011.74 41.4484 1011.79 40.5524C1011.83 39.6138 1011.89 38.6964 1011.98 37.8004C1011.29 37.8431 1010.51 37.8858 1009.61 37.9284C1008.76 37.9284 1008.05 37.9498 1007.5 37.9924V33.8964H1009.16C1011.12 33.8964 1012.75 33.6831 1014.03 33.2564C1015.35 32.8298 1016.22 32.4244 1016.65 32.0404H1019.59V55.0164C1019.59 55.6138 1019.57 56.4884 1019.53 57.6404C1019.49 58.7924 1019.42 59.8378 1019.34 60.7764C1020.06 60.6911 1020.83 60.6484 1021.64 60.6484C1022.45 60.6058 1023.11 60.5631 1023.63 60.5204V64.6804H1012.49C1012.4 64.0831 1012.32 63.4858 1012.23 62.8884C1012.19 62.2911 1012.15 61.7151 1012.11 61.1604C1010.78 62.3551 1009.29 63.4218 1007.63 64.3604C1006 65.2564 1004.19 65.7044 1002.19 65.7044Z" fill="#9F9F9F"/>
</svg>
