<svg width="160" height="160" viewBox="0 0 160 160" fill="none" xmlns="http://www.w3.org/2000/svg">
<path d="M40.0001 111.953C40.2076 119.369 42.3074 126.61 46.1001 132.986C46.6543 134.092 47.5053 135.022 48.5579 135.672C49.6104 136.322 50.8231 136.666 52.0601 136.666H80.7268C82.215 136.667 83.6608 136.171 84.8339 135.255C86.007 134.339 86.84 133.057 87.2001 131.613L90.0001 120.413L92.8001 131.613C93.1603 133.057 93.9932 134.339 95.1663 135.255C96.3394 136.171 97.7852 136.667 99.2734 136.666H107.94C109.18 136.666 110.395 136.321 111.449 135.668C112.503 135.016 113.354 134.082 113.907 132.973C117.702 126.603 119.799 119.365 120 111.953C120 92.3397 106.667 86.2064 106.667 78.6864C106.667 69.353 120 67.7597 120 54.6463C120 40.453 106.667 41.893 106.667 33.073V29.9997C106.667 28.2316 105.964 26.5359 104.714 25.2856C103.464 24.0354 101.768 23.333 100 23.333H93.3334C91.5653 23.333 89.8696 24.0354 88.6194 25.2856C87.3692 26.5359 86.6668 28.2316 86.6668 29.9997V33.9997C86.668 35.2991 86.3478 36.5786 85.7348 37.7243C85.1219 38.87 84.2351 39.8463 83.1534 40.5663C81.9696 41.3544 80.9073 42.3112 80.0001 43.4063C79.0929 42.3112 78.0306 41.3544 76.8468 40.5663C75.7652 39.8463 74.8784 38.87 74.2654 37.7243C73.6524 36.5786 73.3323 35.2991 73.3334 33.9997V29.9997C73.3334 28.2316 72.6311 26.5359 71.3808 25.2856C70.1306 24.0354 68.4349 23.333 66.6668 23.333H60.0001C58.232 23.333 56.5363 24.0354 55.2861 25.2856C54.0358 26.5359 53.3334 28.2316 53.3334 29.9997V33.073C53.3379 34.536 52.9332 35.9711 52.1652 37.2163C51.3971 38.4615 50.2962 39.4671 48.9868 40.1197C46.2788 41.462 44.0014 43.5364 42.4129 46.1077C40.8245 48.679 39.9886 51.644 40.0001 54.6663C40.0001 67.6263 53.3334 69.5063 53.3334 78.8197C53.3334 85.9397 40.0001 92.493 40.0001 111.953ZM46.6668 54.6197C46.6668 44.1263 60.0001 46.913 60.0001 33.0463V29.9997H66.6668V33.9997C66.6632 36.3975 67.2538 38.7588 68.3857 40.8726C69.5177 42.9865 71.1557 44.7869 73.1534 46.113C74.2332 46.8318 75.1188 47.806 75.7317 48.9492C76.3446 50.0924 76.6658 51.3692 76.6668 52.6663C76.6668 53.5504 77.018 54.3982 77.6431 55.0234C78.2682 55.6485 79.1161 55.9997 80.0001 55.9997C80.8842 55.9997 81.732 55.6485 82.3571 55.0234C82.9823 54.3982 83.3334 53.5504 83.3334 52.6663C83.3323 51.367 83.6524 50.0875 84.2654 48.9418C84.8784 47.7961 85.7652 46.8197 86.8468 46.0997C88.8426 44.7748 90.4795 42.9765 91.6113 40.8652C92.7432 38.7539 93.3348 36.3952 93.3334 33.9997V29.9997H100V33.073C100 47.073 113.333 44.0597 113.333 54.6463C113.333 64.0597 100 65.5663 100 78.7997C100 90.4997 113.333 93.6063 113.333 111.953C113.106 118.329 111.251 124.542 107.947 130H99.2801L93.2401 105.86C92.9905 105.204 92.5476 104.64 91.9702 104.242C91.3927 103.844 90.708 103.631 90.0068 103.631C89.3055 103.631 88.6208 103.844 88.0434 104.242C87.466 104.64 87.0231 105.204 86.7734 105.86L80.7268 130H52.0601C48.7547 124.542 46.8982 118.33 46.6668 111.953C46.6668 93.793 60.0001 90.5597 60.0001 78.6864C60.0001 65.4597 46.6668 64.1663 46.6668 54.6663V54.6197Z" fill="#393D46"/>
</svg>
