<svg width="60" height="60" viewBox="0 0 60 60" fill="none" xmlns="http://www.w3.org/2000/svg">
<rect width="60" height="60" fill="white"/>
<path d="M21 29.5002C21 29.235 21.1053 28.9806 21.2929 28.7931C21.4804 28.6055 21.7348 28.5002 22 28.5002L35.59 28.5002L34.29 27.2102C34.1017 27.0219 33.9959 26.7665 33.9959 26.5002C33.9959 26.2339 34.1017 25.9785 34.29 25.7902C34.4783 25.6019 34.7337 25.4961 35 25.4961C35.2663 25.4961 35.5217 25.6019 35.71 25.7902L38.71 28.7902C38.8487 28.9308 38.9427 29.1094 38.9801 29.3034C39.0175 29.4974 38.9966 29.6981 38.92 29.8802C38.845 30.0628 38.7176 30.2191 38.5538 30.3295C38.3901 30.4398 38.1974 30.4992 38 30.5002L22 30.5002C21.7348 30.5002 21.4804 30.3948 21.2929 30.2073C21.1053 30.0198 21 29.7654 21 29.5002Z" fill="#393D46"/>
<path d="M34.0001 32.5002C33.9993 32.3686 34.0245 32.2381 34.0743 32.1163C34.1241 31.9944 34.1974 31.8836 34.2901 31.7902L37.2901 28.7902C37.4784 28.6019 37.7338 28.4961 38.0001 28.4961C38.1319 28.4961 38.2625 28.5221 38.3843 28.5725C38.5061 28.623 38.6168 28.6969 38.7101 28.7902C38.8033 28.8834 38.8773 28.9941 38.9277 29.1159C38.9782 29.2378 39.0042 29.3683 39.0042 29.5002C39.0042 29.7665 38.8984 30.0219 38.7101 30.2102L35.7101 33.2102C35.6171 33.3039 35.5065 33.3783 35.3846 33.4291C35.2628 33.4798 35.1321 33.506 35.0001 33.506C34.868 33.506 34.7373 33.4798 34.6155 33.4291C34.4936 33.3783 34.383 33.3039 34.2901 33.2102C34.1974 33.1167 34.1241 33.0059 34.0743 32.8841C34.0245 32.7623 33.9993 32.6318 34.0001 32.5002Z" fill="#393D46"/>
</svg>
