<svg width="160" height="160" viewBox="0 0 160 160" fill="none" xmlns="http://www.w3.org/2000/svg">
<path d="M120 42.7937V33.3337C120 31.5655 119.298 29.8699 118.047 28.6196C116.797 27.3694 115.102 26.667 113.333 26.667H53.3334C51.5653 26.667 49.8696 27.3694 48.6194 28.6196C47.3691 29.8699 46.6668 31.5655 46.6668 33.3337V42.7937C41.3801 60.5003 36.3134 68.4737 36.5868 83.3336C36.8734 98.8403 42.4401 106.18 52.7334 135.68C53.2159 136.947 54.0712 138.039 55.1863 138.81C56.3015 139.581 57.6242 139.996 58.9801 140H87.1734C88.7515 140 90.2781 139.439 91.4817 138.419C92.6854 137.398 93.488 135.984 93.7468 134.427L96.6668 116.94L99.8134 135.827C100.008 136.994 100.61 138.055 101.514 138.819C102.418 139.584 103.563 140.002 104.747 140H108.847C109.862 139.998 110.851 139.686 111.685 139.107C112.518 138.529 113.156 137.71 113.513 136.76C124.013 106.76 129.787 98.9603 130.073 83.3403C130.353 68.4403 125.24 60.3403 120 42.7937ZM113.333 33.3337V40.0003H53.3334V33.3337H113.333ZM107.687 133.334H106.153L99.9534 96.1203C99.8221 95.3437 99.4199 94.6386 98.8183 94.1302C98.2167 93.6217 97.4544 93.3428 96.6668 93.3428C95.8791 93.3428 95.1168 93.6217 94.5152 94.1302C93.9136 94.6386 93.5114 95.3437 93.3801 96.1203L87.1734 133.334H58.9734C48.4268 103.334 43.5401 97.087 43.2534 83.3336C42.9801 70.1337 47.4468 63.2337 52.4068 46.667H114.26C119.193 63.1337 123.66 70.1003 123.413 83.2137C123.16 97.0736 118.2 103.414 107.687 133.334Z" fill="#393D46"/>
</svg>
