<svg width="160" height="160" viewBox="0 0 160 160" fill="none" xmlns="http://www.w3.org/2000/svg">
<path d="M103.333 23.333H56.2663C54.5675 23.3298 52.9315 23.9751 51.6925 25.1373C50.4535 26.2995 49.7049 27.8908 49.5996 29.5864L43.3463 129.586C43.2888 130.497 43.4187 131.409 43.7279 132.267C44.0371 133.125 44.5191 133.91 45.1439 134.574C45.7688 135.239 46.5233 135.768 47.3608 136.129C48.1983 136.49 49.1009 136.675 50.0129 136.673H63.6462C65.2243 136.672 66.7509 136.112 67.9545 135.091C69.1582 134.071 69.9608 132.656 70.2196 131.1L79.7996 73.613L89.3796 131.1C89.6398 132.655 90.443 134.068 91.6465 135.087C92.85 136.106 94.3758 136.666 95.9529 136.666H109.586C110.498 136.668 111.4 136.483 112.237 136.122C113.074 135.762 113.828 135.233 114.453 134.57C115.077 133.906 115.56 133.122 115.869 132.265C116.179 131.408 116.309 130.496 116.253 129.586L110 29.5864C109.894 27.8908 109.146 26.2995 107.907 25.1373C106.668 23.9751 105.032 23.3298 103.333 23.333ZM103.333 29.9997L104.066 41.7397C101.799 40.7288 99.8735 39.0813 98.5244 36.9973C97.1753 34.9132 96.4603 32.4823 96.4662 29.9997H103.333ZM63.1329 29.9997C63.138 32.4821 62.4227 34.9127 61.0737 36.9966C59.7247 39.0805 57.7999 40.7281 55.5329 41.7397L56.2663 29.9997H63.1329ZM95.9529 130L83.0862 52.7864C82.9549 52.0097 82.5528 51.3046 81.9511 50.7962C81.3495 50.2878 80.5873 50.0088 79.7996 50.0088C79.0119 50.0088 78.2497 50.2878 77.648 50.7962C77.0464 51.3046 76.6443 52.0097 76.5129 52.7864L63.6462 130H50.0129L55.0529 49.433C59.1894 48.0676 62.8139 45.4786 65.447 42.0086C68.0802 38.5386 69.598 34.351 69.7996 29.9997H76.4662V39.9997C76.4662 40.8837 76.8174 41.7316 77.4426 42.3567C78.0677 42.9818 78.9155 43.333 79.7996 43.333C80.6836 43.333 81.5315 42.9818 82.1566 42.3567C82.7817 41.7316 83.1329 40.8837 83.1329 39.9997V29.9997H89.7996C90.0012 34.351 91.519 38.5386 94.1521 42.0086C96.7853 45.4786 100.41 48.0676 104.546 49.433L109.586 130H95.9529Z" fill="#393D46"/>
</svg>
