<svg width="96" height="96" viewBox="0 0 96 96" fill="none" xmlns="http://www.w3.org/2000/svg">
<path d="M74.9484 29.3804C74.6243 28.5705 74.1275 27.841 73.4927 27.2428C72.8578 26.6445 72.1001 26.1919 71.2724 25.9164L61.8204 22.7644L59.2964 17.7164C58.8005 16.7176 58.0348 15.8777 57.0861 15.2916C56.1374 14.7056 55.0435 14.3969 53.9284 14.4004H42.8724C41.7573 14.3969 40.6634 14.7056 39.7147 15.2916C38.766 15.8777 38.0003 16.7176 37.5044 17.7164L34.9804 22.7644L25.5284 25.9164C24.7007 26.1919 23.943 26.6445 23.3081 27.2428C22.6733 27.841 22.1765 28.5705 21.8524 29.3804L15.1164 46.2244C14.6412 47.4056 14.3981 48.6672 14.4004 49.9404V74.4004C14.4004 75.4613 14.8218 76.4787 15.572 77.2288C16.3221 77.979 17.3395 78.4004 18.4004 78.4004H22.4004C23.4613 78.4004 24.4787 77.979 25.2288 77.2288C25.979 76.4787 26.4004 75.4613 26.4004 74.4004V68.6964L28.4004 62.0244V66.5124C28.5184 68.7674 29.2065 70.9557 30.4004 72.8724V78.4004C30.4004 79.4613 30.8218 80.4787 31.572 81.2288C32.3221 81.979 33.3395 82.4004 34.4004 82.4004H62.4004C63.4613 82.4004 64.4787 81.979 65.2288 81.2288C65.979 80.4787 66.4004 79.4613 66.4004 78.4004V72.8724C67.5945 70.9558 68.2826 68.7675 68.4004 66.5124V62.0244L70.4004 68.6964V74.4004C70.4004 75.4613 70.8218 76.4787 71.572 77.2288C72.3221 77.979 73.3395 78.4004 74.4004 78.4004H78.4004C79.4613 78.4004 80.4787 77.979 81.2288 77.2288C81.979 76.4787 82.4004 75.4613 82.4004 74.4004V49.9404C82.4031 48.6685 82.16 47.4081 81.6844 46.2284L74.9484 29.3804ZM70.3564 29.9204C68.2231 33.1283 66.2695 36.4521 64.5044 39.8764C64.2924 40.6764 64.4724 39.7484 64.4004 62.4004C62.8091 62.4004 61.283 61.7683 60.1578 60.643C59.0325 59.5178 58.4004 57.9917 58.4004 56.4004C58.4004 55.87 58.1897 55.3613 57.8146 54.9862C57.4395 54.6111 56.9308 54.4004 56.4004 54.4004C55.87 54.4004 55.3613 54.6111 54.9862 54.9862C54.6111 55.3613 54.4004 55.87 54.4004 56.4004C54.4004 59.0526 55.454 61.5961 57.3293 63.4715C59.2047 65.3468 61.7482 66.4004 64.4004 66.4004V66.5124C64.3173 67.8909 63.8925 69.227 63.1644 70.4004H50.4004V33.4724L60.6964 26.6084C72.1204 30.4924 69.5604 29.4564 70.3564 29.9204ZM40.0004 21.7044L42.4764 26.0364L38.9964 23.7164L40.0004 21.7044ZM56.8324 21.7044L57.8364 23.7044L54.3564 26.0244L56.8324 21.7044ZM54.0884 18.4404L48.4004 28.3684L42.7284 18.4404C43.5404 18.4004 53.2564 18.4004 54.0724 18.4404H54.0884ZM36.1044 26.6084L46.4004 33.4724V70.4004H33.6364C32.9022 69.2298 32.4769 67.8921 32.4004 66.5124V66.4004C35.0526 66.4004 37.5961 65.3468 39.4715 63.4715C41.3468 61.5961 42.4004 59.0526 42.4004 56.4004C42.4004 55.87 42.1897 55.3613 41.8146 54.9862C41.4395 54.6111 40.9308 54.4004 40.4004 54.4004C39.87 54.4004 39.3613 54.6111 38.9862 54.9862C38.6111 55.3613 38.4004 55.87 38.4004 56.4004C38.4004 57.9917 37.7683 59.5178 36.643 60.643C35.5178 61.7683 33.9917 62.4004 32.4004 62.4004C32.3284 39.7524 32.5084 40.6564 32.2964 39.8764C30.5326 36.4514 28.5789 33.1275 26.4444 29.9204C27.0564 29.5604 32.0244 28.0004 36.1044 26.6084ZM18.4004 74.4004V70.4004H22.4004V74.4004H18.4004ZM28.1484 48.9524L22.9124 66.4004H18.4004V49.9404C18.4001 49.1773 18.5454 48.4211 18.8284 47.7124L24.2804 34.0884L28.4004 40.9524V47.2284C28.4007 47.8123 28.3158 48.3931 28.1484 48.9524V48.9524ZM34.4004 78.4004V74.4004H62.4004V78.4004H34.4004ZM68.4004 47.2284V40.9524L72.5204 34.0884L77.9724 47.7164C78.2563 48.4235 78.4016 49.1785 78.4004 49.9404V66.4004H73.8884L68.6524 48.9484C68.4846 48.3905 68.3997 47.811 68.4004 47.2284V47.2284ZM74.4004 74.4004V70.4004H78.4004V74.4004H74.4004Z" fill="#393D46"/>
</svg>
