<svg width="56" height="56" viewBox="0 0 56 56" fill="none" xmlns="http://www.w3.org/2000/svg">
<path d="M43.7196 17.1387C43.5305 16.6663 43.2407 16.2408 42.8704 15.8918C42.5001 15.5428 42.0581 15.2788 41.5752 15.1181L36.0616 13.2794L34.5892 10.3347C34.2999 9.75212 33.8533 9.26214 33.2999 8.92028C32.7465 8.57841 32.1084 8.39833 31.4579 8.40041H25.0086C24.3581 8.39833 23.72 8.57841 23.1666 8.92028C22.6132 9.26214 22.1665 9.75212 21.8772 10.3347L20.4049 13.2794L14.8912 15.1181C14.4084 15.2788 13.9664 15.5428 13.5961 15.8918C13.2257 16.2408 12.936 16.6663 12.7469 17.1387L8.81758 26.9644C8.54038 27.6534 8.39857 28.3894 8.39991 29.1321V43.4004C8.39991 44.0192 8.64574 44.6127 9.08333 45.0503C9.52091 45.4879 10.1144 45.7337 10.7332 45.7337H13.0666C13.6854 45.7337 14.2789 45.4879 14.7165 45.0503C15.1541 44.6127 15.3999 44.0192 15.3999 43.4004V40.0731L16.5666 36.1811V38.7991C16.6354 40.1145 17.0368 41.391 17.7332 42.5091V45.7337C17.7332 46.3526 17.9791 46.9461 18.4167 47.3836C18.8542 47.8212 19.4477 48.0671 20.0666 48.0671H36.3999C37.0188 48.0671 37.6122 47.8212 38.0498 47.3836C38.4874 46.9461 38.7332 46.3526 38.7332 45.7337V42.5091C39.4298 41.391 39.8312 40.1145 39.8999 38.7991V36.1811L41.0666 40.0731V43.4004C41.0666 44.0192 41.3124 44.6127 41.75 45.0503C42.1876 45.4879 42.7811 45.7337 43.3999 45.7337H45.7332C46.3521 45.7337 46.9456 45.4879 47.3832 45.0503C47.8207 44.6127 48.0666 44.0192 48.0666 43.4004V29.1321C48.0681 28.3901 47.9263 27.6549 47.6489 26.9667L43.7196 17.1387ZM41.0409 17.4537C39.7965 19.325 38.6569 21.2639 37.6272 23.2614C37.5036 23.7281 37.6086 23.1867 37.5666 36.4004C36.6383 36.4004 35.7481 36.0316 35.0917 35.3753C34.4353 34.7189 34.0666 33.8287 34.0666 32.9004C34.0666 32.591 33.9437 32.2942 33.7249 32.0754C33.5061 31.8566 33.2093 31.7337 32.8999 31.7337C32.5905 31.7337 32.2937 31.8566 32.075 32.0754C31.8562 32.2942 31.7332 32.591 31.7332 32.9004C31.7332 34.4475 32.3478 35.9312 33.4418 37.0252C34.5358 38.1191 36.0195 38.7337 37.5666 38.7337V38.7991C37.5181 39.6032 37.2703 40.3826 36.8456 41.0671H29.3999V19.5257L35.4059 15.5217C42.0699 17.7874 40.5766 17.1831 41.0409 17.4537ZM23.3332 12.6611L24.7776 15.1881L22.7476 13.8347L23.3332 12.6611ZM33.1519 12.6611L33.7376 13.8277L31.7076 15.1811L33.1519 12.6611ZM31.5512 10.7571L28.2332 16.5484L24.9246 10.7571C25.3982 10.7337 31.0659 10.7337 31.5419 10.7571H31.5512ZM21.0606 15.5217L27.0666 19.5257V41.0671H19.6209C19.1926 40.3842 18.9445 39.6039 18.8999 38.7991V38.7337C20.447 38.7337 21.9307 38.1191 23.0247 37.0252C24.1187 35.9312 24.7332 34.4475 24.7332 32.9004C24.7332 32.591 24.6103 32.2942 24.3915 32.0754C24.1727 31.8566 23.876 31.7337 23.5666 31.7337C23.2572 31.7337 22.9604 31.8566 22.7416 32.0754C22.5228 32.2942 22.3999 32.591 22.3999 32.9004C22.3999 33.8287 22.0312 34.7189 21.3748 35.3753C20.7184 36.0316 19.8282 36.4004 18.8999 36.4004C18.8579 23.1891 18.9629 23.7164 18.8392 23.2614C17.8104 21.2635 16.6707 19.3246 15.4256 17.4537C15.7826 17.2437 18.6806 16.3337 21.0606 15.5217ZM10.7332 43.4004V41.0671H13.0666V43.4004H10.7332ZM16.4196 28.5557L13.3652 38.7337H10.7332V29.1321C10.7331 28.6869 10.8178 28.2458 10.9829 27.8324L14.1632 19.8851L16.5666 23.8891V27.5501C16.5668 27.8907 16.5172 28.2294 16.4196 28.5557V28.5557ZM20.0666 45.7337V43.4004H36.3999V45.7337H20.0666ZM39.8999 27.5501V23.8891L42.3032 19.8851L45.4836 27.8347C45.6492 28.2472 45.7339 28.6876 45.7332 29.1321V38.7337H43.1012L40.0469 28.5534C39.949 28.228 39.8995 27.8899 39.8999 27.5501V27.5501ZM43.3999 43.4004V41.0671H45.7332V43.4004H43.3999Z" fill="#393D46"/>
</svg>
