<svg width="24" height="24" viewBox="0 0 24 24" fill="none" xmlns="http://www.w3.org/2000/svg">
<path d="M11.9997 15.0002C11.8681 15.0009 11.7376 14.9757 11.6158 14.926C11.494 14.8762 11.3831 14.8029 11.2897 14.7102L7.2897 10.7102C7.10139 10.5219 6.99561 10.2665 6.99561 10.0002C6.99561 9.73388 7.10139 9.47849 7.2897 9.29018C7.478 9.10188 7.7334 8.99609 7.9997 8.99609C8.266 8.99609 8.52139 9.10188 8.7097 9.29018L11.9997 12.5902L15.2897 9.30019C15.481 9.13636 15.7271 9.05075 15.9788 9.06047C16.2304 9.07019 16.4692 9.17453 16.6473 9.35262C16.8254 9.53072 16.9297 9.76946 16.9394 10.0211C16.9491 10.2728 16.8635 10.5189 16.6997 10.7102L12.6997 14.7102C12.5134 14.8949 12.262 14.9991 11.9997 15.0002Z" fill="#393D46"/>
</svg>
