<svg width="120" height="120" viewBox="0 0 120 120" fill="none" xmlns="http://www.w3.org/2000/svg">
<circle cx="60" cy="60" r="59" stroke="#9F9F9F" stroke-width="2"/>
<path d="M64.9439 44.6182C64.9439 45.5704 64.9439 46.5225 64.9439 47.4747C64.9439 49.7598 64.9439 52.045 64.9439 54.3365C64.9439 57.0914 64.9439 59.8462 64.9439 62.6011C64.9439 64.9878 64.9439 67.3809 64.9439 69.7676C64.9439 70.9229 64.9185 72.0845 64.9439 73.2398C64.9439 73.2588 64.9439 73.2715 64.9439 73.2906C65.7881 72.4463 66.6387 71.5958 67.4829 70.7515C65.3501 70.7515 63.2173 70.7515 61.0845 70.7515C57.6758 70.7515 54.2608 70.7515 50.8521 70.7515C50.0713 70.7515 49.2905 70.7515 48.5161 70.7515C49.3604 71.5958 50.211 72.4463 51.0552 73.2906C51.0425 71.7989 50.6172 70.2247 49.7412 69.0059C49.1699 68.2125 48.5986 67.6348 47.8242 67.0508C47.2212 66.5938 46.542 66.2828 45.8311 66.0225C43.0191 64.9815 39.5215 65.94 37.5981 68.2315C36.3921 69.6724 35.7002 71.399 35.6812 73.2969C36.5254 72.4527 37.376 71.6021 38.2202 70.7579C37.4395 70.7579 36.665 70.7579 35.8843 70.7579C35.0908 70.7579 34.2656 70.8277 33.4722 70.7388C33.6943 70.7706 33.9229 70.8023 34.145 70.8277C33.9736 70.8023 33.8086 70.7579 33.6499 70.7007C33.853 70.7833 34.0562 70.8721 34.2593 70.9546C34.0752 70.8785 33.9102 70.7833 33.7515 70.6626C33.9229 70.796 34.0942 70.9293 34.2656 71.0626C34.1323 70.9546 34.0181 70.8404 33.9165 70.7134C34.0498 70.8848 34.1831 71.0562 34.3164 71.2276C34.1958 71.0689 34.1006 70.9039 34.0244 70.7198C34.1069 70.9229 34.1958 71.126 34.2783 71.3292C34.2148 71.1641 34.1768 71.0054 34.1514 70.834C34.1831 71.0562 34.2148 71.2847 34.2402 71.5069C34.2085 71.2022 34.2212 70.8912 34.2212 70.5865C34.2212 69.9517 34.2212 69.3106 34.2212 68.6758C34.2212 66.543 34.2212 64.4039 34.2212 62.2711C34.2212 59.6876 34.2212 57.1041 34.2212 54.5206C34.2212 52.2925 34.2212 50.0645 34.2212 47.8365C34.2212 46.7764 34.2085 45.7164 34.2212 44.6627C34.2212 44.5611 34.2275 44.4659 34.2402 44.3643C34.2085 44.5865 34.1768 44.815 34.1514 45.0372C34.1768 44.8658 34.2212 44.7007 34.2783 44.542C34.1958 44.7452 34.1069 44.9483 34.0244 45.1514C34.1006 44.9673 34.1958 44.8023 34.3164 44.6436C34.1831 44.815 34.0498 44.9864 33.9165 45.1578C34.0244 45.0245 34.1387 44.9102 34.2656 44.8086C34.0942 44.9419 33.9229 45.0753 33.7515 45.2086C33.9102 45.0879 34.0752 44.9927 34.2593 44.9166C34.0562 44.9991 33.853 45.0879 33.6499 45.1705C33.8149 45.107 33.9736 45.0689 34.145 45.0435C33.9229 45.0753 33.6943 45.107 33.4722 45.1324C33.8213 45.0943 34.1831 45.1133 34.5386 45.1133C35.3003 45.1133 36.062 45.1133 36.8237 45.1133C39.3628 45.1133 41.8955 45.1133 44.4346 45.1133C47.5005 45.1133 50.5664 45.1133 53.6387 45.1133C56.292 45.1133 58.9453 45.1133 61.5987 45.1133C62.8618 45.1133 64.125 45.0943 65.3882 45.1133C65.4898 45.1133 65.5913 45.1197 65.6929 45.1324C65.4707 45.1006 65.2422 45.0689 65.02 45.0435C65.1914 45.0689 65.3565 45.1133 65.5152 45.1705C65.312 45.0879 65.1089 44.9991 64.9058 44.9166C65.0899 44.9927 65.2549 45.0879 65.4136 45.2086C65.2422 45.0753 65.0708 44.9419 64.8994 44.8086C65.0327 44.9166 65.147 45.0308 65.2486 45.1578C65.1153 44.9864 64.982 44.815 64.8487 44.6436C64.9693 44.8023 65.0645 44.9673 65.1407 45.1514C65.0581 44.9483 64.9693 44.7452 64.8867 44.542C64.9502 44.7071 64.9883 44.8658 65.0137 45.0372C64.982 44.815 64.9502 44.5865 64.9248 44.3643C64.9375 44.4405 64.9439 44.5294 64.9439 44.6182C64.9566 45.2784 65.2168 45.9449 65.6866 46.4146C66.1245 46.8526 66.8482 47.189 67.4829 47.1573C68.835 47.0938 70.0537 46.0401 70.022 44.6182C69.9966 43.4312 69.565 42.3775 68.7906 41.4888C68.2002 40.816 67.2544 40.2701 66.3658 40.1304C65.9849 40.0669 65.6104 40.0225 65.2232 40.0225C64.6328 40.0225 64.0362 40.0225 63.4458 40.0225C60.9385 40.0225 58.4312 40.0225 55.9238 40.0225C52.6421 40.0225 49.3667 40.0225 46.085 40.0225C43.2222 40.0225 40.3594 40.0225 37.5029 40.0225C36.2524 40.0225 34.9956 39.9971 33.7451 40.0225C31.7012 40.0606 29.9238 41.3809 29.3271 43.3423C29.1812 43.8121 29.1494 44.3135 29.1494 44.8086C29.1494 45.4625 29.1494 46.1163 29.1494 46.7701C29.1494 49.5059 29.1494 52.2354 29.1494 54.9712C29.1494 58.2022 29.1494 61.4395 29.1494 64.6705C29.1494 66.7271 29.1494 68.7774 29.1494 70.834C29.1494 70.9673 29.1494 71.1006 29.1494 71.2276C29.1621 72.0274 29.3589 72.7193 29.708 73.4366C30.1016 74.2364 30.8887 74.9854 31.7012 75.3409C32.3994 75.6519 33.0532 75.8296 33.8276 75.836C34.0562 75.836 34.291 75.836 34.5195 75.836C35.3193 75.836 36.1128 75.836 36.9126 75.836C37.3506 75.836 37.7886 75.836 38.2266 75.836C39.6104 75.836 40.7529 74.6744 40.7656 73.2969C40.7656 73.0621 40.7847 72.8272 40.8164 72.5923C40.7847 72.8145 40.7529 73.043 40.7275 73.2652C40.791 72.8082 40.918 72.3702 41.0894 71.9512C41.0068 72.1544 40.918 72.3575 40.8355 72.5606C41.0132 72.148 41.2417 71.7671 41.5147 71.4117C41.3814 71.5831 41.2481 71.7544 41.1148 71.9258C41.375 71.5958 41.667 71.3038 41.9971 71.0435C41.8257 71.1768 41.6543 71.3101 41.4829 71.4434C41.8384 71.1705 42.2192 70.9419 42.6318 70.7642C42.4287 70.8467 42.2256 70.9356 42.0225 71.0181C42.4478 70.8404 42.8858 70.7198 43.3364 70.6563C43.1143 70.688 42.8858 70.7198 42.6636 70.7452C43.1333 70.6817 43.603 70.6817 44.0728 70.7452C43.8506 70.7134 43.6221 70.6817 43.3999 70.6563C43.8569 70.7198 44.2949 70.8467 44.7139 71.0181C44.5108 70.9356 44.3076 70.8467 44.1045 70.7642C44.5171 70.9419 44.898 71.1705 45.2534 71.4434C45.082 71.3101 44.9107 71.1768 44.7393 71.0435C45.0693 71.3038 45.3613 71.5958 45.6216 71.9258C45.4883 71.7544 45.355 71.5831 45.2217 71.4117C45.4946 71.7671 45.7232 72.148 45.9009 72.5606C45.8184 72.3575 45.7295 72.1544 45.647 71.9512C45.8247 72.3765 45.9453 72.8145 46.0088 73.2652C45.9771 73.043 45.9453 72.8145 45.9199 72.5923C45.9517 72.8272 45.9644 73.0621 45.9707 73.2969C45.9834 74.668 47.126 75.836 48.5098 75.836C50.6426 75.836 52.7754 75.836 54.9082 75.836C58.3169 75.836 61.732 75.836 65.1407 75.836C65.9214 75.836 66.7022 75.836 67.4766 75.836C68.8477 75.836 70.0157 74.6744 70.0157 73.2969C70.0157 72.3448 70.0157 71.3926 70.0157 70.4405C70.0157 68.1553 70.0157 65.8702 70.0157 63.5787C70.0157 60.8238 70.0157 58.0689 70.0157 55.314C70.0157 52.9273 70.0157 50.5342 70.0157 48.1475C70.0157 46.9922 70.0347 45.8306 70.0157 44.6753C70.0157 44.6563 70.0157 44.6436 70.0157 44.6246C70.0157 43.2979 68.8477 42.022 67.4766 42.0855C66.1055 42.1426 64.9439 43.1963 64.9439 44.6182Z" fill="#393D46"/>
<path d="M86.7732 62.9059C86.7732 65.3752 86.7732 67.8381 86.7732 70.3073C86.7732 70.7008 86.7986 71.1071 86.7541 71.507C86.7859 71.2848 86.8176 71.0563 86.843 70.8341C86.8176 71.0055 86.7732 71.1706 86.7161 71.3293C86.7986 71.1261 86.8874 70.923 86.97 70.7199C86.8938 70.904 86.7986 71.069 86.678 71.2277C86.8113 71.0563 86.9446 70.8849 87.0779 70.7135C86.97 70.8468 86.8557 70.9611 86.7287 71.0627C86.9001 70.9294 87.0715 70.7961 87.2429 70.6628C87.0842 70.7834 86.9192 70.8786 86.7351 70.9548C86.9382 70.8722 87.1413 70.7834 87.3445 70.7008C87.1794 70.7643 87.0207 70.8024 86.8494 70.8278C87.0715 70.7961 87.3 70.7643 87.5222 70.7389C86.8684 70.8088 86.1892 70.758 85.529 70.758C84.8879 70.758 84.2532 70.758 83.612 70.758C84.4563 71.6022 85.3069 72.4528 86.1511 73.297C86.1384 71.8053 85.7131 70.2311 84.8371 69.0124C84.2659 68.2189 83.6946 67.6413 82.9202 67.0573C82.3171 66.6003 81.6379 66.2892 80.927 66.029C78.1086 64.988 74.6174 65.9465 72.6941 68.238C71.488 69.6789 70.7961 71.4054 70.7771 73.3034C71.6213 72.4591 72.4719 71.6086 73.3162 70.7643C71.615 70.7643 69.9202 70.7643 68.219 70.7643C67.9714 70.7643 67.7239 70.7643 67.4763 70.7643C68.3206 71.6086 69.1711 72.4591 70.0154 73.3034C70.0154 72.5544 70.0154 71.8117 70.0154 71.0627C70.0154 69.2726 70.0154 67.4762 70.0154 65.6862C70.0154 63.5153 70.0154 61.3507 70.0154 59.1799C70.0154 57.3073 70.0154 55.4284 70.0154 53.5558C70.0154 52.6418 70.0344 51.7277 70.0154 50.8136C70.0154 50.8009 70.0154 50.7882 70.0154 50.7756C69.1711 51.6198 68.3206 52.4704 67.4763 53.3146C68.7712 53.3146 70.0662 53.3146 71.3611 53.3146C73.386 53.3146 75.4109 53.3146 77.4358 53.3146C77.9753 53.3146 78.5403 53.2765 79.0735 53.34C78.8513 53.3083 78.6228 53.2765 78.4006 53.2511C78.6291 53.2892 78.8386 53.3464 79.0544 53.4289C78.8513 53.3464 78.6482 53.2575 78.4451 53.175C78.6863 53.2765 78.9084 53.4035 79.1116 53.5622C78.9402 53.4289 78.7688 53.2956 78.5974 53.1623C79.0163 53.4987 79.3464 53.9621 79.6892 54.3683C80.3049 55.1047 80.9206 55.841 81.5427 56.5773C82.9836 58.2975 84.4245 60.0241 85.8718 61.7443C86.2209 62.1632 86.5764 62.5758 86.9192 62.9948C86.7859 62.8234 86.6526 62.652 86.5193 62.4806C86.6653 62.6774 86.7795 62.8742 86.8811 63.0964C86.7986 62.8932 86.7097 62.6901 86.6272 62.487C86.7161 62.7091 86.7795 62.9313 86.8176 63.1725C86.7859 62.9504 86.7541 62.7218 86.7287 62.4997C86.7605 62.633 86.7732 62.7663 86.7732 62.9059C86.7859 63.5661 87.0461 64.2326 87.5159 64.7023C87.9538 65.1403 88.6775 65.4767 89.3122 65.445C90.6643 65.3815 91.8767 64.3278 91.8513 62.9059C91.8323 61.9919 91.6101 61.154 91.1911 60.3415C90.9944 59.9606 90.7087 59.6242 90.4358 59.2941C90.3215 59.1608 90.2136 59.0275 90.0994 58.8942C89.5471 58.234 88.9885 57.5675 88.4363 56.9074C86.9382 55.1173 85.4338 53.321 83.9358 51.5309C83.5232 51.0358 83.1106 50.5407 82.698 50.0519C81.6887 48.8522 80.1462 48.2301 78.5974 48.2301C76.7629 48.2238 74.9221 48.2301 73.0876 48.2301C71.2532 48.2301 69.4123 48.2111 67.5779 48.2301C67.5461 48.2301 67.5144 48.2301 67.4827 48.2301C66.1116 48.2301 64.9436 49.3918 64.9436 50.7692C64.9436 51.5182 64.9436 52.2609 64.9436 53.0099C64.9436 54.8 64.9436 56.5964 64.9436 58.3864C64.9436 60.5573 64.9436 62.7218 64.9436 64.8927C64.9436 66.7653 64.9436 68.6442 64.9436 70.5168C64.9436 71.4308 64.9309 72.3449 64.9436 73.259C64.9436 73.2716 64.9436 73.2843 64.9436 73.297C64.9436 74.6681 66.1052 75.8361 67.4827 75.8361C69.1838 75.8361 70.8787 75.8361 72.5798 75.8361C72.8274 75.8361 73.0749 75.8361 73.3225 75.8361C74.7063 75.8361 75.8489 74.6745 75.8616 73.297C75.8616 73.0622 75.8806 72.8273 75.9123 72.5924C75.8806 72.8146 75.8489 73.0431 75.8235 73.2653C75.887 72.8083 76.0139 72.3703 76.1853 71.9513C76.1028 72.1545 76.0139 72.3576 75.9314 72.5607C76.1091 72.1481 76.3376 71.7673 76.6106 71.4118C76.4773 71.5832 76.344 71.7546 76.2107 71.9259C76.4709 71.5959 76.7629 71.3039 77.093 71.0436C76.9216 71.1769 76.7502 71.3102 76.5788 71.4435C76.9343 71.1706 77.3152 70.9421 77.7278 70.7643C77.5246 70.8468 77.3215 70.9357 77.1184 71.0182C77.5437 70.8405 77.9817 70.7199 78.4324 70.6564C78.2102 70.6882 77.9817 70.7199 77.7595 70.7453C78.2292 70.6818 78.699 70.6818 79.1687 70.7453C78.9465 70.7135 78.718 70.6818 78.4958 70.6564C78.9529 70.7199 79.3909 70.8468 79.8098 71.0182C79.6067 70.9357 79.4036 70.8468 79.2004 70.7643C79.613 70.9421 79.9939 71.1706 80.3494 71.4435C80.178 71.3102 80.0066 71.1769 79.8352 71.0436C80.1653 71.3039 80.4573 71.5959 80.7175 71.9259C80.5842 71.7546 80.4509 71.5832 80.3176 71.4118C80.5906 71.7673 80.8191 72.1481 80.9968 72.5607C80.9143 72.3576 80.8254 72.1545 80.7429 71.9513C80.9206 72.3766 81.0412 72.8146 81.1047 73.2653C81.073 73.0431 81.0412 72.8146 81.0159 72.5924C81.0476 72.8273 81.0603 73.0622 81.0666 73.297C81.0793 74.6681 82.2219 75.8361 83.6057 75.8361C84.6086 75.8361 85.6179 75.8361 86.6208 75.8361C87.2873 75.8361 87.9665 75.8488 88.6077 75.6266C89.3821 75.3664 90.1374 74.9347 90.6643 74.3C90.9309 73.9762 91.1848 73.6589 91.3498 73.278C91.6291 72.6496 91.7561 72.1862 91.8259 71.5006C91.8957 70.7897 91.845 70.047 91.845 69.3361C91.845 68.0348 91.845 66.7336 91.845 65.4323C91.845 64.5881 91.845 63.7502 91.845 62.9059C91.845 61.5793 90.677 60.3034 89.3059 60.3669C87.9411 60.4303 86.7732 61.4841 86.7732 62.9059ZM45.9705 73.2907C45.9705 73.5256 45.9514 73.7604 45.9197 73.9953C45.9514 73.7731 45.9832 73.5446 46.0085 73.3224C45.9451 73.7795 45.8181 74.2174 45.6467 74.6364C45.7292 74.4333 45.8181 74.2301 45.9006 74.027C45.7229 74.4396 45.4944 74.8205 45.2214 75.1759C45.3547 75.0046 45.488 74.8332 45.6213 74.6618C45.3611 74.9919 45.0691 75.2839 44.739 75.5441C44.9104 75.4108 45.0818 75.2775 45.2532 75.1442C44.8977 75.4172 44.5168 75.6457 44.1042 75.8234C44.3074 75.7409 44.5105 75.652 44.7136 75.5695C44.2883 75.7472 43.8503 75.8678 43.3997 75.9313C43.6218 75.8996 43.8503 75.8678 44.0725 75.8424C43.6028 75.9059 43.1331 75.9059 42.6633 75.8424C42.8855 75.8742 43.114 75.9059 43.3362 75.9313C42.8792 75.8678 42.4412 75.7409 42.0222 75.5695C42.2253 75.652 42.4285 75.7409 42.6316 75.8234C42.219 75.6457 41.8381 75.4172 41.4827 75.1442C41.6541 75.2775 41.8254 75.4108 41.9968 75.5441C41.6667 75.2839 41.3748 74.9919 41.1145 74.6618C41.2478 74.8332 41.3811 75.0046 41.5144 75.1759C41.2415 74.8205 41.0129 74.4396 40.8352 74.027C40.9177 74.2301 41.0066 74.4333 41.0891 74.6364C40.9114 74.2111 40.7908 73.7731 40.7273 73.3224C40.759 73.5446 40.7908 73.7731 40.8162 73.9953C40.7527 73.5256 40.7527 73.0558 40.8162 72.5861C40.7844 72.8083 40.7527 73.0368 40.7273 73.259C40.7908 72.8019 40.9177 72.3639 41.0891 71.945C41.0066 72.1481 40.9177 72.3512 40.8352 72.5544C41.0129 72.1418 41.2415 71.7609 41.5144 71.4054C41.3811 71.5768 41.2478 71.7482 41.1145 71.9196C41.3748 71.5895 41.6667 71.2975 41.9968 71.0373C41.8254 71.1706 41.6541 71.3039 41.4827 71.4372C41.8381 71.1642 42.219 70.9357 42.6316 70.758C42.4285 70.8405 42.2253 70.9294 42.0222 71.0119C42.4475 70.8341 42.8855 70.7135 43.3362 70.6501C43.114 70.6818 42.8855 70.7135 42.6633 70.7389C43.1331 70.6755 43.6028 70.6755 44.0725 70.7389C43.8503 70.7072 43.6218 70.6755 43.3997 70.6501C43.8567 70.7135 44.2947 70.8405 44.7136 71.0119C44.5105 70.9294 44.3074 70.8405 44.1042 70.758C44.5168 70.9357 44.8977 71.1642 45.2532 71.4372C45.0818 71.3039 44.9104 71.1706 44.739 71.0373C45.0691 71.2975 45.3611 71.5895 45.6213 71.9196C45.488 71.7482 45.3547 71.5768 45.2214 71.4054C45.4944 71.7609 45.7229 72.1418 45.9006 72.5544C45.8181 72.3512 45.7292 72.1481 45.6467 71.945C45.8245 72.3703 45.9451 72.8083 46.0085 73.259C45.9768 73.0368 45.9451 72.8083 45.9197 72.5861C45.9578 72.821 45.9705 73.0558 45.9705 73.2907C45.9768 73.9445 46.2498 74.6237 46.7131 75.0871C47.1511 75.5251 47.8748 75.8615 48.5095 75.8298C49.8743 75.7663 51.0613 74.7126 51.0486 73.2907C51.0359 71.7863 50.6042 70.193 49.7092 68.9679C49.1379 68.1935 48.5793 67.6222 47.8176 67.0446C47.2146 66.5812 46.5354 66.2765 45.8245 66.0163C45.1072 65.7497 44.3074 65.6354 43.5393 65.61C42.7839 65.5846 41.9905 65.6862 41.2605 65.8957C39.8577 66.2956 38.4929 67.1271 37.5598 68.257C36.9377 69.0124 36.5251 69.7233 36.157 70.631C35.8713 71.342 35.7571 72.0846 35.6873 72.8464C35.5603 74.3381 35.9856 75.9504 36.7537 77.2262C37.5027 78.4704 38.6453 79.5749 39.9719 80.1779C40.8987 80.5968 41.7239 80.8254 42.7332 80.9333C43.4885 81.0158 44.2439 80.9333 44.9866 80.7873C46.5417 80.4953 48.1033 79.5622 49.1189 78.3498C50.3249 76.9089 51.0168 75.1823 51.0359 73.2843C51.0486 71.9577 49.8616 70.6818 48.4968 70.7453C47.1257 70.8151 45.9832 71.8688 45.9705 73.2907Z" fill="#393D46"/>
<path d="M81.073 73.2904C81.073 73.5253 81.0539 73.7602 81.0222 73.995C81.0539 73.7729 81.0857 73.5443 81.1111 73.3222C81.0476 73.7792 80.9206 74.2172 80.7493 74.6361C80.8318 74.433 80.9206 74.2299 81.0032 74.0268C80.8254 74.4394 80.5969 74.8202 80.324 75.1757C80.4573 75.0043 80.5906 74.8329 80.7239 74.6615C80.4636 74.9916 80.1716 75.2836 79.8415 75.5439C80.0129 75.4106 80.1843 75.2773 80.3557 75.144C80.0002 75.4169 79.6194 75.6454 79.2068 75.8232C79.4099 75.7406 79.613 75.6518 79.8161 75.5692C79.3909 75.747 78.9529 75.8676 78.5022 75.9311C78.7244 75.8993 78.9529 75.8676 79.175 75.8422C78.7053 75.9057 78.2356 75.9057 77.7659 75.8422C77.988 75.8739 78.2165 75.9057 78.4387 75.9311C77.9817 75.8676 77.5437 75.7406 77.1247 75.5692C77.3279 75.6518 77.531 75.7406 77.7341 75.8232C77.3215 75.6454 76.9407 75.4169 76.5852 75.144C76.7566 75.2773 76.928 75.4106 77.0994 75.5439C76.7693 75.2836 76.4773 74.9916 76.217 74.6615C76.3503 74.8329 76.4836 75.0043 76.6169 75.1757C76.344 74.8202 76.1155 74.4394 75.9377 74.0268C76.0203 74.2299 76.1091 74.433 76.1916 74.6361C76.0139 74.2108 75.8933 73.7729 75.8298 73.3222C75.8616 73.5443 75.8933 73.7729 75.9187 73.995C75.8552 73.5253 75.8552 73.0556 75.9187 72.5859C75.887 72.808 75.8552 73.0365 75.8298 73.2587C75.8933 72.8017 76.0203 72.3637 76.1916 71.9447C76.1091 72.1479 76.0203 72.351 75.9377 72.5541C76.1155 72.1415 76.344 71.7607 76.6169 71.4052C76.4836 71.5766 76.3503 71.748 76.217 71.9193C76.4773 71.5893 76.7693 71.2973 77.0994 71.037C76.928 71.1703 76.7566 71.3036 76.5852 71.4369C76.9407 71.164 77.3215 70.9355 77.7341 70.7577C77.531 70.8402 77.3279 70.9291 77.1247 71.0116C77.55 70.8339 77.988 70.7133 78.4387 70.6498C78.2165 70.6816 77.988 70.7133 77.7659 70.7387C78.2356 70.6752 78.7053 70.6752 79.175 70.7387C78.9529 70.7069 78.7244 70.6752 78.5022 70.6498C78.9592 70.7133 79.3972 70.8402 79.8161 71.0116C79.613 70.9291 79.4099 70.8402 79.2068 70.7577C79.6194 70.9355 80.0002 71.164 80.3557 71.4369C80.1843 71.3036 80.0129 71.1703 79.8415 71.037C80.1716 71.2973 80.4636 71.5893 80.7239 71.9193C80.5906 71.748 80.4573 71.5766 80.324 71.4052C80.5969 71.7607 80.8254 72.1415 81.0032 72.5541C80.9206 72.351 80.8318 72.1479 80.7493 71.9447C80.927 72.37 81.0476 72.808 81.1111 73.2587C81.0793 73.0365 81.0476 72.808 81.0222 72.5859C81.0539 72.8207 81.073 73.0556 81.073 73.2904C81.0793 73.9442 81.3523 74.6234 81.8157 75.0868C82.2536 75.5248 82.9773 75.8612 83.612 75.8295C84.9768 75.766 86.1638 74.7123 86.1511 73.2904C86.1384 71.786 85.7068 70.1928 84.8117 68.9677C84.2405 68.1933 83.6819 67.622 82.9201 67.0444C82.3171 66.581 81.6379 66.2763 80.927 66.016C80.2097 65.7494 79.4099 65.6352 78.6418 65.6098C77.8865 65.5844 77.093 65.686 76.363 65.8954C74.9602 66.2953 73.5955 67.1269 72.6624 68.2568C72.0403 69.0121 71.6277 69.7231 71.2595 70.6308C70.9739 71.3417 70.8596 72.0844 70.7898 72.8461C70.6628 74.3378 71.0881 75.9501 71.8562 77.226C72.6052 78.4701 73.7478 79.5746 75.0745 80.1776C76.0012 80.5966 76.8264 80.8251 77.8357 80.933C78.5911 81.0155 79.3464 80.933 80.0891 80.787C81.6443 80.495 83.2058 79.5619 84.2214 78.3495C85.4275 76.9086 86.1194 75.182 86.1384 73.2841C86.1511 71.9574 84.9641 70.6816 83.5993 70.745C82.2283 70.8149 81.0857 71.8686 81.073 73.2904Z" fill="#393D46"/>
</svg>
