<svg width="96" height="96" viewBox="0 0 96 96" fill="none" xmlns="http://www.w3.org/2000/svg">
<path d="M34.1711 78H62.1711C63.232 78 64.2494 77.5786 64.9996 76.8284C65.7497 76.0783 66.1711 75.0609 66.1711 74V40.828L69.3431 44C70.1046 44.7281 71.1176 45.1345 72.1711 45.1345C73.2247 45.1345 74.2377 44.7281 74.9991 44L80.1711 38.828C80.921 38.0779 81.3423 37.0607 81.3423 36C81.3423 34.9394 80.921 33.9221 80.1711 33.172L66.7551 19.756C66.1995 19.1977 65.5387 18.755 64.8109 18.4536C64.0832 18.1521 63.3029 17.998 62.5151 18H33.8271C33.0394 17.998 32.2591 18.1521 31.5314 18.4536C30.8036 18.755 30.1428 19.1977 29.5871 19.756L16.1711 33.172C15.4213 33.9221 15 34.9394 15 36C15 37.0607 15.4213 38.0779 16.1711 38.828L21.3431 44C22.1046 44.7281 23.1176 45.1345 24.1711 45.1345C25.2247 45.1345 26.2377 44.7281 26.9991 44L30.1711 40.828V74C30.1711 75.0609 30.5926 76.0783 31.3427 76.8284C32.0929 77.5786 33.1103 78 34.1711 78ZM53.8031 22C53.3959 23.1691 52.6348 24.1825 51.6257 24.8996C50.6165 25.6166 49.4092 26.0019 48.1711 26.0019C46.9331 26.0019 45.7258 25.6166 44.7166 24.8996C43.7075 24.1825 42.9464 23.1691 42.5391 22H53.8031ZM24.1711 41.172L18.9991 36L32.4151 22.584C32.79 22.2101 33.2977 22.0001 33.8271 22H38.3751C38.8342 24.2606 40.0606 26.293 41.8466 27.7528C43.6327 29.2126 45.8684 30.01 48.1751 30.01C50.4819 30.01 52.7176 29.2126 54.5037 27.7528C56.2897 26.293 57.5161 24.2606 57.9751 22H62.5231C63.0526 22.0001 63.5603 22.2101 63.9351 22.584L77.3431 36L72.1711 41.172L65.5871 34.584C65.3074 34.3036 64.9507 34.1125 64.5623 34.0351C64.1739 33.9576 63.7712 33.9972 63.4053 34.1489C63.0394 34.3005 62.7268 34.5574 62.5071 34.887C62.2874 35.2166 62.1704 35.6039 62.1711 36V74H34.1711V36C34.1719 35.6039 34.0549 35.2166 33.8352 34.887C33.6155 34.5574 33.3029 34.3005 32.937 34.1489C32.5711 33.9972 32.1684 33.9576 31.78 34.0351C31.3915 34.1125 31.0349 34.3036 30.7551 34.584L24.1711 41.172Z" fill="#393D46"/>
</svg>
