<svg width="60" height="60" viewBox="0 0 60 60" fill="none" xmlns="http://www.w3.org/2000/svg">
<rect width="60" height="60" fill="white"/>
<path d="M21.0001 29.5002C21.0001 29.235 21.1055 28.9806 21.293 28.7931C21.4805 28.6055 21.7349 28.5002 22.0001 28.5002L35.5901 28.5002L34.2901 27.2102C34.1018 27.0219 33.996 26.7665 33.996 26.5002C33.996 26.2339 34.1018 25.9785 34.2901 25.7902C34.4784 25.6019 34.7338 25.4961 35.0001 25.4961C35.2664 25.4961 35.5218 25.6019 35.7101 25.7902L38.7101 28.7902C38.8489 28.9308 38.9429 29.1094 38.9802 29.3034C39.0176 29.4974 38.9967 29.6981 38.9201 29.8802C38.8451 30.0628 38.7177 30.2191 38.554 30.3295C38.3902 30.4398 38.1975 30.4992 38.0001 30.5002L22.0001 30.5002C21.7349 30.5002 21.4805 30.3948 21.293 30.2073C21.1055 30.0198 21.0001 29.7654 21.0001 29.5002Z" fill="#393D46"/>
<path d="M34.0001 32.5002C33.9993 32.3686 34.0245 32.2381 34.0743 32.1163C34.1241 31.9944 34.1974 31.8836 34.2901 31.7902L37.2901 28.7902C37.4784 28.6019 37.7338 28.4961 38.0001 28.4961C38.1319 28.4961 38.2625 28.5221 38.3843 28.5725C38.5061 28.623 38.6168 28.6969 38.7101 28.7902C38.8033 28.8834 38.8773 28.9941 38.9277 29.1159C38.9782 29.2378 39.0042 29.3683 39.0042 29.5002C39.0042 29.7665 38.8984 30.0219 38.7101 30.2102L35.7101 33.2102C35.6171 33.3039 35.5065 33.3783 35.3846 33.4291C35.2628 33.4798 35.1321 33.506 35.0001 33.506C34.868 33.506 34.7373 33.4798 34.6155 33.4291C34.4936 33.3783 34.383 33.3039 34.2901 33.2102C34.1974 33.1167 34.1241 33.0059 34.0743 32.8841C34.0245 32.7623 33.9993 32.6318 34.0001 32.5002Z" fill="#393D46"/>
</svg>
