<svg width="48" height="48" viewBox="0 0 48 48" fill="none" xmlns="http://www.w3.org/2000/svg">
<path d="M37.4742 14.6902C37.3122 14.2853 37.0638 13.9205 36.7463 13.6214C36.4289 13.3222 36.0501 13.0959 35.6362 12.9582L30.9102 11.3822L29.6482 8.85821C29.4002 8.35882 29.0174 7.93884 28.543 7.64581C28.0687 7.35279 27.5218 7.19843 26.9642 7.20021H21.4362C20.8786 7.19843 20.3317 7.35279 19.8574 7.64581C19.383 7.93884 19.0002 8.35882 18.7522 8.85821L17.4902 11.3822L12.7642 12.9582C12.3503 13.0959 11.9715 13.3222 11.6541 13.6214C11.3366 13.9205 11.0882 14.2853 10.9262 14.6902L7.5582 23.1122C7.3206 23.7028 7.19905 24.3336 7.2002 24.9702V37.2002C7.2002 37.7306 7.41092 38.2393 7.78599 38.6144C8.16106 38.9895 8.66977 39.2002 9.2002 39.2002H11.2002C11.7306 39.2002 12.2393 38.9895 12.6144 38.6144C12.9895 38.2393 13.2002 37.7306 13.2002 37.2002V34.3482L14.2002 31.0122V33.2562C14.2592 34.3837 14.6032 35.4778 15.2002 36.4362V39.2002C15.2002 39.7306 15.4109 40.2393 15.786 40.6144C16.1611 40.9895 16.6698 41.2002 17.2002 41.2002H31.2002C31.7306 41.2002 32.2393 40.9895 32.6144 40.6144C32.9895 40.2393 33.2002 39.7306 33.2002 39.2002V36.4362C33.7972 35.4779 34.1413 34.3837 34.2002 33.2562V31.0122L35.2002 34.3482V37.2002C35.2002 37.7306 35.4109 38.2393 35.786 38.6144C36.1611 38.9895 36.6698 39.2002 37.2002 39.2002H39.2002C39.7306 39.2002 40.2393 38.9895 40.6144 38.6144C40.9895 38.2393 41.2002 37.7306 41.2002 37.2002V24.9702C41.2015 24.3342 41.08 23.704 40.8422 23.1142L37.4742 14.6902ZM35.1782 14.9602C34.1116 16.5642 33.1347 18.226 32.2522 19.9382C32.1462 20.3382 32.2362 19.8742 32.2002 31.2002C31.4046 31.2002 30.6415 30.8841 30.0789 30.3215C29.5163 29.7589 29.2002 28.9958 29.2002 28.2002C29.2002 27.935 29.0948 27.6806 28.9073 27.4931C28.7198 27.3056 28.4654 27.2002 28.2002 27.2002C27.935 27.2002 27.6806 27.3056 27.4931 27.4931C27.3056 27.6806 27.2002 27.935 27.2002 28.2002C27.2002 29.5263 27.727 30.798 28.6647 31.7357C29.6024 32.6734 30.8741 33.2002 32.2002 33.2002V33.2562C32.1586 33.9454 31.9463 34.6135 31.5822 35.2002H25.2002V16.7362L30.3482 13.3042C36.0602 15.2462 34.7802 14.7282 35.1782 14.9602ZM20.0002 10.8522L21.2382 13.0182L19.4982 11.8582L20.0002 10.8522ZM28.4162 10.8522L28.9182 11.8522L27.1782 13.0122L28.4162 10.8522ZM27.0442 9.22021L24.2002 14.1842L21.3642 9.22021C21.7702 9.20021 26.6282 9.20021 27.0362 9.22021H27.0442ZM18.0522 13.3042L23.2002 16.7362V35.2002H16.8182C16.4511 34.6149 16.2385 33.946 16.2002 33.2562V33.2002C17.5263 33.2002 18.7981 32.6734 19.7357 31.7357C20.6734 30.798 21.2002 29.5263 21.2002 28.2002C21.2002 27.935 21.0948 27.6806 20.9073 27.4931C20.7198 27.3056 20.4654 27.2002 20.2002 27.2002C19.935 27.2002 19.6806 27.3056 19.4931 27.4931C19.3056 27.6806 19.2002 27.935 19.2002 28.2002C19.2002 28.9958 18.8841 29.7589 18.3215 30.3215C17.7589 30.8841 16.9959 31.2002 16.2002 31.2002C16.1642 19.8762 16.2542 20.3282 16.1482 19.9382C15.2663 18.2257 14.2895 16.5638 13.2222 14.9602C13.5282 14.7802 16.0122 14.0002 18.0522 13.3042ZM9.2002 37.2002V35.2002H11.2002V37.2002H9.2002ZM14.0742 24.4762L11.4562 33.2002H9.2002V24.9702C9.20004 24.5886 9.27268 24.2105 9.4142 23.8562L12.1402 17.0442L14.2002 20.4762V23.6142C14.2004 23.9061 14.1579 24.1965 14.0742 24.4762V24.4762ZM17.2002 39.2002V37.2002H31.2002V39.2002H17.2002ZM34.2002 23.6142V20.4762L36.2602 17.0442L38.9862 23.8582C39.1281 24.2117 39.2008 24.5892 39.2002 24.9702V33.2002H36.9442L34.3262 24.4742C34.2423 24.1953 34.1999 23.9055 34.2002 23.6142V23.6142ZM37.2002 37.2002V35.2002H39.2002V37.2002H37.2002Z" fill="#CDCFD1"/>
</svg>
