<svg width="160" height="160" viewBox="0 0 160 160" fill="none" xmlns="http://www.w3.org/2000/svg">
<path d="M79.9997 33.333C48.2197 33.333 23.333 47.9997 23.333 66.6663V93.333C23.333 108.553 40.6197 121.706 65.4597 125.526C66.8598 126.265 68.4168 126.656 69.9997 126.666H89.9997C91.5825 126.656 93.1396 126.265 94.5397 125.526C119.38 121.706 136.666 108.553 136.666 93.333V66.6663C136.666 47.9997 111.78 33.333 79.9997 33.333ZM29.9997 93.333V82.5863C38.6007 90.9465 49.6006 96.408 61.4597 98.2063C60.5135 99.7496 60.0085 101.523 59.9997 103.333V116.666C59.9997 117.013 60.0664 117.333 60.0997 117.68C42.3063 113.44 29.9997 103.786 29.9997 93.333ZM93.333 116.666C93.2985 117.539 92.9362 118.367 92.3184 118.985C91.7006 119.603 90.8727 119.965 89.9997 120H83.333V113.333H86.6664C87.5504 113.333 88.3983 112.982 89.0234 112.357C89.6485 111.732 89.9997 110.884 89.9997 110C89.9997 109.116 89.6485 108.268 89.0234 107.643C88.3983 107.018 87.5504 106.666 86.6664 106.666H83.333V99.9997H89.9997C90.8837 99.9997 91.7316 100.351 92.3567 100.976C92.9818 101.601 93.333 102.449 93.333 103.333V116.666ZM66.6663 116.666V103.333C66.6663 102.449 67.0175 101.601 67.6427 100.976C68.2678 100.351 69.1156 99.9997 69.9997 99.9997H76.6664V106.666C75.7823 106.666 74.9344 107.018 74.3093 107.643C73.6842 108.268 73.333 109.116 73.333 110C73.333 110.884 73.6842 111.732 74.3093 112.357C74.9344 112.982 75.7823 113.333 76.6664 113.333V120H69.9997C69.1257 119.968 68.296 119.607 67.6775 118.989C67.0591 118.37 66.6978 117.54 66.6663 116.666V116.666ZM99.2264 87.433C99.893 79.3597 91.4264 74.453 83.333 73.5197V66.853C99.0064 68.2197 109.586 78.8263 99.2264 87.433ZM66.6663 86.6663C66.6663 83.5197 72.3664 79.9997 79.9997 79.9997C87.253 79.9997 92.6664 83.5197 92.6664 86.6663C92.6664 89.813 87.253 93.333 79.9997 93.333C74.573 93.333 66.6663 90.8063 66.6663 86.6663ZM76.6664 73.553C67.1063 74.5863 59.9997 79.9463 59.9997 86.653C50.6663 77.653 62.313 68.1063 76.6664 66.8663V73.553ZM108.72 85.553C109.517 83.8075 109.953 81.9183 110 79.9997C110 68.7797 96.8197 59.9997 79.9997 59.9997C63.1797 59.9997 49.9997 68.7797 49.9997 79.9997C50.0438 81.9251 50.4793 83.8213 51.2797 85.573C49.0613 84.3308 47.1786 82.5673 45.7941 80.4348C44.4097 78.3023 43.565 75.8649 43.333 73.333C43.333 62.493 60.1263 53.333 79.9997 53.333C99.873 53.333 116.666 62.493 116.666 73.333C116.434 75.8649 115.59 78.3023 114.205 80.4348C112.821 82.5673 110.938 84.3308 108.72 85.573V85.553ZM130 93.333C130 103.786 117.693 113.44 99.8997 117.68C99.933 117.34 99.9997 117.013 99.9997 116.666V103.333C99.9909 101.523 99.4859 99.7496 98.5397 98.2063C110.399 96.408 121.399 90.9465 130 82.5863V93.333ZM121.38 81.4063C122.654 78.9052 123.323 76.1399 123.333 73.333C123.333 58.3797 104.3 46.6663 79.9997 46.6663C55.6997 46.6663 36.6663 58.3797 36.6663 73.333C36.6774 76.1398 37.3464 78.9049 38.6197 81.4063C36.1523 79.7712 34.0924 77.5924 32.5981 75.0373C31.1039 72.4821 30.215 69.6185 29.9997 66.6663C29.9997 52.213 52.8997 39.9997 79.9997 39.9997C107.1 39.9997 130 52.213 130 66.6663C129.784 69.6185 128.896 72.4821 127.401 75.0373C125.907 77.5924 123.847 79.7712 121.38 81.4063V81.4063Z" fill="#393D46"/>
</svg>
