<svg width="32" height="31" viewBox="0 0 32 31" fill="none" xmlns="http://www.w3.org/2000/svg">
<path d="M6.99986 15.0002C6.99986 14.735 7.10522 14.4806 7.29275 14.2931C7.48029 14.1055 7.73464 14.0002 7.99986 14.0002L21.5899 14.0002L20.2899 12.7102C20.1016 12.5219 19.9958 12.2665 19.9958 12.0002C19.9958 11.7339 20.1016 11.4785 20.2899 11.2902C20.4782 11.1019 20.7336 10.9961 20.9999 10.9961C21.2662 10.9961 21.5216 11.1019 21.7099 11.2902L24.7099 14.2902C24.8486 14.4308 24.9426 14.6094 24.98 14.8034C25.0174 14.9974 24.9964 15.1981 24.9199 15.3802C24.8448 15.5628 24.7174 15.7191 24.5537 15.8295C24.39 15.9398 24.1973 15.9992 23.9999 16.0002L7.99986 16.0002C7.73464 16.0002 7.48029 15.8948 7.29275 15.7073C7.10522 15.5198 6.99986 15.2654 6.99986 15.0002Z" fill="#393D46"/>
<path d="M19.9998 18.0002C19.9991 17.8686 20.0243 17.7381 20.074 17.6163C20.1238 17.4944 20.1971 17.3836 20.2898 17.2902L23.2898 14.2902C23.4781 14.1019 23.7335 13.9961 23.9998 13.9961C24.1317 13.9961 24.2622 14.0221 24.3841 14.0725C24.5059 14.123 24.6166 14.1969 24.7098 14.2902C24.8031 14.3834 24.877 14.4941 24.9275 14.6159C24.9779 14.7378 25.0039 14.8683 25.0039 15.0002C25.0039 15.2665 24.8981 15.5219 24.7098 15.7102L21.7098 18.7102C21.6169 18.8039 21.5063 18.8783 21.3844 18.9291C21.2625 18.9798 21.1318 19.006 20.9998 19.006C20.8678 19.006 20.7371 18.9798 20.6152 18.9291C20.4934 18.8783 20.3828 18.8039 20.2898 18.7102C20.1971 18.6167 20.1238 18.5059 20.074 18.3841C20.0243 18.2623 19.9991 18.1318 19.9998 18.0002Z" fill="#393D46"/>
</svg>
