<svg width="160" height="160" viewBox="0 0 160 160" fill="none" xmlns="http://www.w3.org/2000/svg">
<path d="M126.667 29.7397C126.591 28.8587 126.171 28.0429 125.499 27.4681C124.827 26.8933 123.956 26.6054 123.074 26.6664C122.636 26.6992 122.209 26.8184 121.817 27.017C121.425 27.2157 121.076 27.4898 120.79 27.8238C120.504 28.1578 120.288 28.5449 120.152 28.963C120.017 29.381 119.965 29.8217 120.001 30.2597L123.914 80.173C115.026 80.8408 106.506 83.9983 99.3286 89.284C92.1518 94.5697 86.6087 101.77 83.3341 110.06C80.0586 101.768 74.5135 94.5664 67.334 89.2806C60.1546 83.9948 51.6313 80.8384 42.7408 80.173L46.6675 30.2597C46.7364 29.3757 46.4514 28.5004 45.875 27.8265C45.2986 27.1527 44.4782 26.7353 43.5941 26.6664C42.7101 26.5974 41.8348 26.8825 41.161 27.4588C40.4871 28.0352 40.0698 28.8557 40.0008 29.7397L35.9008 82.053C29.9288 88.4786 26.6344 96.9412 26.6901 105.713C26.7459 114.485 30.1475 122.905 36.2006 129.255C42.2537 135.604 50.5019 139.403 59.2613 139.878C68.0208 140.352 76.6309 137.465 83.3341 131.806C90.0374 137.461 98.646 140.345 107.403 139.868C116.16 139.392 124.405 135.591 130.455 129.243C136.505 122.894 139.904 114.476 139.959 105.706C140.013 96.9362 136.718 88.4763 130.747 82.053L126.667 29.7397ZM41.5075 125.16C36.4341 120.094 33.5056 113.27 33.3293 106.103C33.1531 98.9353 35.7426 91.9753 40.5608 86.6664C50.9157 87.0015 60.7549 91.2652 68.0802 98.5917C75.4054 105.918 79.6675 115.758 80.0008 126.113C74.691 130.93 67.7305 133.519 60.5633 133.341C53.3961 133.164 46.5723 130.234 41.5075 125.16V125.16ZM125.154 125.16C120.086 130.218 113.268 133.136 106.11 133.312C98.9514 133.489 91.9986 130.909 86.6875 126.106C87.0222 115.756 91.2822 105.92 98.603 98.5959C105.924 91.2713 115.757 87.0063 126.107 86.6664C130.926 91.9754 133.516 98.9362 133.338 106.104C133.161 113.272 130.23 120.096 125.154 125.16V125.16Z" fill="#393D46"/>
</svg>
