<svg width="120" height="120" viewBox="0 0 120 120" fill="none" xmlns="http://www.w3.org/2000/svg">
<circle cx="60" cy="60" r="59" stroke="#9F9F9F" stroke-width="2"/>
<path d="M78.5523 78.0513C80.171 78.0513 81.8023 77.7085 83.1353 76.7374C84.6715 75.6202 85.9029 74.0142 86.2457 72.1036C86.4869 70.7452 86.4107 69.3614 86.4107 67.9903C86.4107 64.8545 86.4298 61.7124 86.4107 58.5704C86.4044 57.085 85.9791 55.5298 85.0968 54.3238C83.9859 52.8003 82.399 51.5752 80.5074 51.2261C79.7774 51.0865 79.0284 51.0166 78.2857 51.0547C77.1685 51.1119 76.1973 51.3848 75.1944 51.8545C73.4425 52.6734 72.2047 54.2603 71.5128 56.0186C70.9542 57.4341 71.0621 59.0083 71.0621 60.5C71.0621 62.379 71.0621 64.2642 71.0621 66.1431C71.0621 67.5523 71.0621 68.9615 71.0621 70.3707C71.0621 71.6338 71.335 72.7764 71.8682 73.9126C72.6807 75.6646 74.274 76.9024 76.0323 77.5943C76.8258 77.9117 77.7017 78.045 78.5523 78.0513C79.879 78.064 81.1549 76.877 81.0914 75.5123C81.0279 74.1285 79.9742 72.9859 78.5523 72.9732C78.3175 72.9732 78.0889 72.9541 77.8541 72.9224C78.0763 72.9541 78.3048 72.9859 78.5269 73.0113C78.1016 72.9478 77.6954 72.8335 77.3018 72.6685C77.505 72.751 77.7081 72.8399 77.9112 72.9224C77.524 72.7574 77.1685 72.5479 76.8321 72.294C77.0035 72.4273 77.1749 72.5606 77.3463 72.6939C76.9972 72.4209 76.6861 72.1099 76.4132 71.7608C76.5465 71.9322 76.6798 72.1036 76.8131 72.2749C76.5592 71.9385 76.3497 71.5831 76.1846 71.1958C76.2672 71.399 76.356 71.6021 76.4386 71.8052C76.2735 71.4117 76.1593 71.0054 76.0958 70.5801C76.1275 70.8023 76.1593 71.0308 76.1846 71.253C76.1085 70.688 76.1339 70.1104 76.1339 69.5391C76.1339 68.5552 76.1339 67.5777 76.1339 66.5938C76.1339 64.334 76.1339 62.0806 76.1339 59.8208C76.1339 59.1607 76.0958 58.4878 76.1846 57.834C76.1529 58.0562 76.1212 58.2847 76.0958 58.5069C76.1593 58.0816 76.2735 57.6753 76.4386 57.2818C76.356 57.4849 76.2672 57.688 76.1846 57.8912C76.3497 57.504 76.5592 57.1485 76.8131 56.8121C76.6798 56.9834 76.5465 57.1548 76.4132 57.3262C76.6861 56.9771 76.9972 56.6661 77.3463 56.3931C77.1749 56.5264 77.0035 56.6597 76.8321 56.793C77.1685 56.5391 77.524 56.3296 77.9112 56.1646C77.7081 56.2471 77.505 56.336 77.3018 56.4185C77.6954 56.2535 78.1016 56.1392 78.5269 56.0757C78.3048 56.1075 78.0763 56.1392 77.8541 56.1646C78.4317 56.0884 79.0411 56.0884 79.6187 56.1646C79.3966 56.1329 79.168 56.1011 78.9459 56.0757C79.3712 56.1392 79.7774 56.2535 80.171 56.4185C79.9679 56.336 79.7647 56.2471 79.5616 56.1646C79.9488 56.3296 80.3043 56.5391 80.6407 56.793C80.4693 56.6597 80.2979 56.5264 80.1265 56.3931C80.4757 56.6661 80.7867 56.9771 81.0597 57.3262C80.9264 57.1548 80.793 56.9834 80.6597 56.8121C80.9137 57.1485 81.1231 57.504 81.2882 57.8912C81.2056 57.688 81.1168 57.4849 81.0343 57.2818C81.1993 57.6753 81.3136 58.0816 81.377 58.5069C81.3453 58.2847 81.3136 58.0562 81.2882 57.834C81.3643 58.399 81.3389 58.9766 81.3389 59.5479C81.3389 60.5318 81.3389 61.5093 81.3389 62.4932C81.3389 64.753 81.3389 67.0064 81.3389 69.2662C81.3389 69.9263 81.377 70.5992 81.2882 71.253C81.3199 71.0308 81.3516 70.8023 81.377 70.5801C81.3136 71.0054 81.1993 71.4117 81.0343 71.8052C81.1168 71.6021 81.2056 71.399 81.2882 71.1958C81.1231 71.5831 80.9137 71.9385 80.6597 72.2749C80.793 72.1036 80.9264 71.9322 81.0597 71.7608C80.7867 72.1099 80.4757 72.4209 80.1265 72.6939C80.2979 72.5606 80.4693 72.4273 80.6407 72.294C80.3043 72.5479 79.9488 72.7574 79.5616 72.9224C79.7647 72.8399 79.9679 72.751 80.171 72.6685C79.7774 72.8335 79.3712 72.9478 78.9459 73.0113C79.168 72.9795 79.3966 72.9478 79.6187 72.9224C79.2633 72.9668 78.9078 72.9732 78.5523 72.9732C77.2257 72.9732 75.9498 74.1412 76.0133 75.5123C76.0767 76.8897 77.1305 78.0513 78.5523 78.0513ZM42.0787 78.0513C43.6973 78.0513 45.3287 77.7085 46.6617 76.7374C48.1978 75.6202 49.4293 74.0142 49.7721 72.1036C50.0133 70.7452 49.9371 69.3614 49.9371 67.9903C49.9371 64.8545 49.9561 61.7124 49.9371 58.5704C49.9307 57.085 49.5055 55.5298 48.6231 54.3238C47.5123 52.8003 45.9254 51.5752 44.0338 51.2261C43.3038 51.0865 42.5548 51.0166 41.8121 51.0547C40.6949 51.1119 39.7237 51.3848 38.7208 51.8545C36.9688 52.6734 35.731 54.2603 35.0391 56.0186C34.4805 57.4341 34.5885 59.0083 34.5885 60.5C34.5885 62.379 34.5885 64.2642 34.5885 66.1431C34.5885 67.5523 34.5885 68.9615 34.5885 70.3707C34.5885 71.6338 34.8614 72.7764 35.3946 73.9126C36.2071 75.6646 37.8004 76.9024 39.5587 77.5943C40.3521 77.9117 41.2281 78.045 42.0787 78.0513C43.4054 78.064 44.6812 76.877 44.6178 75.5123C44.5543 74.1285 43.5006 72.9859 42.0787 72.9732C41.8438 72.9732 41.6153 72.9541 41.3805 72.9224C41.6026 72.9541 41.8311 72.9859 42.0533 73.0113C41.628 72.9478 41.2218 72.8335 40.8282 72.6685C41.0313 72.751 41.2345 72.8399 41.4376 72.9224C41.0504 72.7574 40.6949 72.5479 40.3585 72.294C40.5299 72.4273 40.7013 72.5606 40.8726 72.6939C40.5235 72.4209 40.2125 72.1099 39.9395 71.7608C40.0728 71.9322 40.2061 72.1036 40.3394 72.2749C40.0855 71.9385 39.8761 71.5831 39.711 71.1958C39.7935 71.399 39.8824 71.6021 39.9649 71.8052C39.7999 71.4117 39.6856 71.0054 39.6222 70.5801C39.6539 70.8023 39.6856 71.0308 39.711 71.253C39.6348 70.688 39.6602 70.1104 39.6602 69.5391C39.6602 68.5552 39.6602 67.5777 39.6602 66.5938C39.6602 64.334 39.6602 62.0806 39.6602 59.8208C39.6602 59.1607 39.6222 58.4878 39.711 57.834C39.6793 58.0562 39.6475 58.2847 39.6222 58.5069C39.6856 58.0816 39.7999 57.6753 39.9649 57.2818C39.8824 57.4849 39.7935 57.688 39.711 57.8912C39.8761 57.504 40.0855 57.1485 40.3394 56.8121C40.2061 56.9834 40.0728 57.1548 39.9395 57.3262C40.2125 56.9771 40.5235 56.6661 40.8726 56.3931C40.7013 56.5264 40.5299 56.6597 40.3585 56.793C40.6949 56.5391 41.0504 56.3296 41.4376 56.1646C41.2345 56.2471 41.0313 56.336 40.8282 56.4185C41.2218 56.2535 41.628 56.1392 42.0533 56.0757C41.8311 56.1075 41.6026 56.1392 41.3805 56.1646C41.9581 56.0884 42.5675 56.0884 43.1451 56.1646C42.9229 56.1329 42.6944 56.1011 42.4722 56.0757C42.8975 56.1392 43.3038 56.2535 43.6973 56.4185C43.4942 56.336 43.2911 56.2471 43.088 56.1646C43.4752 56.3296 43.8306 56.5391 44.1671 56.793C43.9957 56.6597 43.8243 56.5264 43.6529 56.3931C44.002 56.6661 44.3131 56.9771 44.586 57.3262C44.4527 57.1548 44.3194 56.9834 44.1861 56.8121C44.44 57.1485 44.6495 57.504 44.8145 57.8912C44.732 57.688 44.6431 57.4849 44.5606 57.2818C44.7257 57.6753 44.8399 58.0816 44.9034 58.5069C44.8717 58.2847 44.8399 58.0562 44.8145 57.834C44.8907 58.399 44.8653 58.9766 44.8653 59.5479C44.8653 60.5318 44.8653 61.5093 44.8653 62.4932C44.8653 64.753 44.8653 67.0064 44.8653 69.2662C44.8653 69.9263 44.9034 70.5992 44.8145 71.253C44.8463 71.0308 44.878 70.8023 44.9034 70.5801C44.8399 71.0054 44.7257 71.4117 44.5606 71.8052C44.6431 71.6021 44.732 71.399 44.8145 71.1958C44.6495 71.5831 44.44 71.9385 44.1861 72.2749C44.3194 72.1036 44.4527 71.9322 44.586 71.7608C44.3131 72.1099 44.002 72.4209 43.6529 72.6939C43.8243 72.5606 43.9957 72.4273 44.1671 72.294C43.8306 72.5479 43.4752 72.7574 43.088 72.9224C43.2911 72.8399 43.4942 72.751 43.6973 72.6685C43.3038 72.8335 42.8975 72.9478 42.4722 73.0113C42.6944 72.9795 42.9229 72.9478 43.1451 72.9224C42.7896 72.9668 42.4342 72.9732 42.0787 72.9732C40.752 72.9732 39.4762 74.1412 39.5396 75.5123C39.5968 76.8897 40.6568 78.0513 42.0787 78.0513Z" fill="#393D46"/>
<path d="M39.667 70.3771C39.667 68.422 39.667 66.467 39.667 64.5119C39.667 61.8014 39.667 59.091 39.667 56.3805C39.667 55.0729 39.6987 53.7717 39.8701 52.4767C39.8384 52.6989 39.8066 52.9274 39.7813 53.1496C40.0605 51.1056 40.6064 49.1061 41.4063 47.2018C41.3237 47.405 41.2349 47.6081 41.1523 47.8112C41.9458 45.9513 42.9678 44.1994 44.2056 42.5998C44.0723 42.7712 43.939 42.9426 43.8057 43.1139C45.0371 41.527 46.4653 40.0988 48.0522 38.8674C47.8809 39.0007 47.7095 39.134 47.5381 39.2673C49.1377 38.0358 50.8897 37.0075 52.7495 36.214C52.5464 36.2966 52.3433 36.3854 52.1401 36.4679C54.0444 35.6681 56.044 35.1222 58.0879 34.8429C57.8657 34.8747 57.6372 34.9064 57.415 34.9318C59.4653 34.6652 61.541 34.6652 63.5913 34.9318C63.3691 34.9001 63.1406 34.8683 62.9185 34.8429C64.9624 35.1222 66.9619 35.6681 68.8662 36.4679C68.6631 36.3854 68.46 36.2966 68.2568 36.214C70.1167 37.0075 71.8687 38.0295 73.4683 39.2673C73.2969 39.134 73.1255 39.0007 72.9541 38.8674C74.541 40.0988 75.9692 41.527 77.2007 43.1139C77.0674 42.9426 76.9341 42.7712 76.8008 42.5998C78.0322 44.1994 79.0606 45.9513 79.854 47.8112C79.7715 47.6081 79.6826 47.405 79.6001 47.2018C80.3999 49.1061 80.9458 51.1056 81.2251 53.1496C81.1934 52.9274 81.1616 52.6989 81.1362 52.4767C81.314 53.8224 81.3394 55.1681 81.3394 56.5202C81.3394 57.9865 81.3394 59.4465 81.3394 60.9128C81.3394 64.5627 81.3394 68.2126 81.3394 71.8625C81.3394 73.0368 81.3901 74.2302 81.2378 75.3981C81.2695 75.176 81.3013 74.9474 81.3267 74.7253C81.1934 75.6901 80.9395 76.6296 80.565 77.5246C80.6475 77.3215 80.7363 77.1183 80.8189 76.9152C80.438 77.8166 79.9429 78.6608 79.3399 79.4416C79.4732 79.2702 79.6065 79.0988 79.7398 78.9274C79.1558 79.6764 78.4893 80.3429 77.7402 80.9269C77.9116 80.7936 78.083 80.6603 78.2544 80.527C77.48 81.1237 76.6294 81.6188 75.728 82.006C75.9312 81.9235 76.1343 81.8346 76.3374 81.7521C75.436 82.1266 74.5029 82.3805 73.5381 82.5138C73.7603 82.4821 73.9888 82.4504 74.2109 82.425C73.2271 82.5519 72.2368 82.5265 71.2466 82.5265C70.0151 82.5265 68.7837 82.5265 67.5523 82.5265C67.2412 82.5265 66.9365 82.5265 66.6255 82.5265C65.2988 82.5265 64.023 83.6945 64.0864 85.0656C64.1499 86.443 65.2036 87.6047 66.6255 87.6047C68.187 87.6047 69.7422 87.6047 71.3037 87.6047C71.8941 87.6047 72.4844 87.6174 73.0747 87.5983C74.9092 87.5412 76.6167 87.1096 78.2925 86.3923C81.1172 85.1799 83.5674 82.8503 84.9258 80.0954C85.7383 78.445 86.2017 76.7565 86.3731 74.9221C86.4175 74.4523 86.4175 73.9826 86.4175 73.5065C86.4175 70.2248 86.4175 66.943 86.4175 63.6613C86.4175 60.9636 86.4238 58.2658 86.4175 55.568C86.4111 52.6291 85.9224 49.6393 84.9068 46.8781C83.815 43.9074 82.2534 41.2287 80.2222 38.8039C76.4326 34.2844 70.9356 31.0724 65.1275 30.0759C61.8965 29.5173 58.6719 29.5363 55.4536 30.152C52.5273 30.7106 49.6582 31.8469 47.1128 33.3957C41.9014 36.5759 37.9531 41.5207 35.96 47.278C35.0396 49.9313 34.5952 52.7814 34.5889 55.5871C34.5889 56.6789 34.5889 57.7643 34.5889 58.8561C34.5889 62.4426 34.5889 66.0353 34.5889 69.6218C34.5889 69.8757 34.5889 70.1232 34.5889 70.3771C34.5889 71.7038 35.7568 72.9797 37.1279 72.9162C38.499 72.8527 39.667 71.799 39.667 70.3771Z" fill="#393D46"/>
<path d="M64.0862 85.0591C64.0862 85.2368 64.0735 85.4146 64.0481 85.5859C64.0798 85.3638 64.1116 85.1353 64.137 84.9131C64.0862 85.2241 64.0037 85.5288 63.8894 85.8208C63.9719 85.6177 64.0608 85.4146 64.1433 85.2114C64.01 85.5225 63.8386 85.8081 63.6355 86.0811C63.7688 85.9097 63.9021 85.7383 64.0354 85.5669C63.845 85.8081 63.6291 86.0239 63.3879 86.2144C63.5593 86.0811 63.7307 85.9478 63.9021 85.8145C63.6355 86.0176 63.3435 86.189 63.0325 86.3223C63.2356 86.2397 63.4387 86.1509 63.6418 86.0684C63.3498 86.189 63.0452 86.2715 62.7341 86.3159C62.9563 86.2842 63.1848 86.2524 63.407 86.2271C62.5754 86.335 61.7058 86.2651 60.8679 86.2651C60.0173 86.2651 59.135 86.335 58.2908 86.2334C58.5129 86.2651 58.7415 86.2969 58.9636 86.3223C58.6335 86.2715 58.3225 86.189 58.0115 86.062C58.2146 86.1445 58.4177 86.2334 58.6208 86.3159C58.3225 86.1826 58.0496 86.0239 57.7893 85.8271C57.9607 85.9604 58.1321 86.0937 58.3035 86.2271C58.0496 86.0239 57.8274 85.8018 57.6243 85.5479C57.7576 85.7192 57.8909 85.8906 58.0242 86.062C57.8274 85.8018 57.6687 85.5288 57.5354 85.2305C57.6179 85.4336 57.7068 85.6367 57.7893 85.8398C57.6624 85.5352 57.5798 85.2178 57.5291 84.8877C57.5608 85.1099 57.5925 85.3384 57.6179 85.5605C57.5735 85.2114 57.5735 84.8687 57.6179 84.5259C57.5862 84.748 57.5544 84.9766 57.5291 85.1987C57.5798 84.8877 57.6624 84.583 57.7766 84.291C57.6941 84.4941 57.6052 84.6973 57.5227 84.9004C57.656 84.5894 57.8274 84.3037 58.0305 84.0308C57.8972 84.2021 57.7639 84.3735 57.6306 84.5449C57.821 84.3037 58.0369 84.0879 58.2781 83.8975C58.1067 84.0308 57.9353 84.1641 57.7639 84.2974C58.0305 84.0942 58.3225 83.9229 58.6335 83.7896C58.4304 83.8721 58.2273 83.9609 58.0242 84.0435C58.3162 83.9229 58.6208 83.8403 58.9319 83.7959C58.7097 83.8276 58.4812 83.8594 58.259 83.8848C59.0906 83.7769 59.9602 83.8467 60.7981 83.8467C61.6487 83.8467 62.531 83.7769 63.3752 83.8784C63.1531 83.8467 62.9246 83.8149 62.7024 83.7896C63.0325 83.8403 63.3435 83.9229 63.6545 84.0498C63.4514 83.9673 63.2483 83.8784 63.0452 83.7959C63.3435 83.9292 63.6164 84.0879 63.8767 84.2847C63.7053 84.1514 63.5339 84.0181 63.3625 83.8848C63.6164 84.0879 63.8386 84.3101 64.0417 84.564C63.9084 84.3926 63.7751 84.2212 63.6418 84.0498C63.8386 84.3101 63.9973 84.583 64.1306 84.8813C64.0481 84.6782 63.9592 84.4751 63.8767 84.272C64.0037 84.5767 64.0862 84.894 64.137 85.2241C64.1052 85.002 64.0735 84.7734 64.0481 84.5513C64.0735 84.7227 64.0798 84.8877 64.0862 85.0591C64.0925 85.7129 64.3655 86.3857 64.8288 86.8555C65.2668 87.2935 65.9905 87.6299 66.6252 87.5981C67.9836 87.5347 69.1833 86.481 69.1643 85.0591C69.1516 83.9038 68.8406 82.6978 68.1994 81.7202C67.5964 80.8062 66.7776 79.9746 65.7873 79.4858C64.8542 79.0288 63.9021 78.7749 62.8484 78.7622C62.5945 78.7622 62.3469 78.7622 62.093 78.7622C61.1853 78.7622 60.2712 78.7622 59.3635 78.7622C59.1731 78.7622 58.9763 78.7622 58.7859 78.7622C57.7195 78.7749 56.7039 79.0415 55.7581 79.543C54.844 80.0254 54.1331 80.7681 53.5364 81.5996C52.9207 82.4629 52.6604 83.4849 52.5271 84.5259C52.3875 85.6812 52.6795 86.8428 53.1746 87.8838C53.6506 88.8994 54.4568 89.6992 55.3709 90.334C56.5261 91.1338 57.9099 91.3496 59.281 91.3496C60.1887 91.3496 61.0901 91.3496 61.9978 91.3496C62.2834 91.3496 62.5754 91.3496 62.8611 91.3496C63.9338 91.3369 64.9495 91.0703 65.8953 90.5688C67.9075 89.5024 69.1389 87.2998 69.1643 85.0527C69.177 83.7261 67.9836 82.4502 66.6252 82.5137C65.2351 82.5835 64.0989 83.6372 64.0862 85.0591Z" fill="#393D46"/>
</svg>
