<svg width="120" height="120" viewBox="0 0 120 120" fill="none" xmlns="http://www.w3.org/2000/svg">
<circle cx="60" cy="60" r="59" stroke="#9F9F9F" stroke-width="2"/>
<path d="M85.3873 42C85.3873 43.2062 85.3873 44.4188 85.3873 45.625C85.3873 48.5125 85.3873 51.4 85.3873 54.2812C85.3873 57.7625 85.3873 61.2437 85.3873 64.725C85.3873 67.725 85.3873 70.725 85.3873 73.7188C85.3873 75.1313 85.3936 76.5437 85.3873 77.9562C85.3873 78.0875 85.3811 78.2125 85.3623 78.3438C85.3936 78.125 85.4248 77.9 85.4498 77.6813C85.4186 77.9063 85.3623 78.1187 85.2811 78.3312C85.3623 78.1312 85.4498 77.9313 85.5311 77.7313C85.4311 77.9625 85.3123 78.175 85.1623 78.3688C85.2936 78.2 85.4248 78.0312 85.5561 77.8625C85.4186 78.0312 85.2686 78.1875 85.0936 78.325C85.2623 78.1938 85.4311 78.0625 85.5998 77.9313C85.3998 78.0813 85.1873 78.2062 84.9623 78.3C85.1623 78.2187 85.3623 78.1312 85.5623 78.05C85.3498 78.1312 85.1373 78.1875 84.9123 78.2188C85.1311 78.1875 85.3561 78.1562 85.5748 78.1312C85.0436 78.1937 84.4873 78.1562 83.9498 78.1562C82.7373 78.1562 81.5186 78.1562 80.3061 78.1562C78.4936 78.1562 76.6811 78.1562 74.8686 78.1562C72.6498 78.1562 70.4311 78.1562 68.2123 78.1562C65.7811 78.1562 63.3436 78.1562 60.9123 78.1562C58.4561 78.1562 55.9998 78.1562 53.5373 78.1562C51.2498 78.1562 48.9561 78.1562 46.6686 78.1562C44.7373 78.1562 42.8123 78.1562 40.8811 78.1562C39.4998 78.1562 38.1248 78.1562 36.7436 78.1562C36.1061 78.1562 35.4748 78.1562 34.8373 78.1562C34.6998 78.1562 34.5623 78.15 34.4248 78.1312C34.6436 78.1625 34.8686 78.1937 35.0873 78.2188C34.8623 78.1875 34.6498 78.1312 34.4373 78.05C34.6373 78.1312 34.8373 78.2187 35.0373 78.3C34.8061 78.2 34.5936 78.0813 34.3998 77.9313C34.5686 78.0625 34.7373 78.1938 34.9061 78.325C34.7373 78.1875 34.5811 78.0375 34.4436 77.8625C34.5748 78.0312 34.7061 78.2 34.8373 78.3688C34.6873 78.1688 34.5623 77.9563 34.4686 77.7313C34.5498 77.9313 34.6373 78.1312 34.7186 78.3312C34.6373 78.1187 34.5811 77.9063 34.5498 77.6813C34.5811 77.9 34.6123 78.125 34.6373 78.3438C34.5936 77.9313 34.6123 77.5125 34.6123 77.1C34.6123 76.2312 34.6123 75.3625 34.6123 74.4938C34.6123 71.6188 34.6123 68.7438 34.6123 65.8688C34.6123 62.3813 34.6123 58.8875 34.6123 55.4C34.6123 52.375 34.6123 49.35 34.6123 46.325C34.6123 44.9 34.6061 43.475 34.6123 42.0437C34.6123 41.9125 34.6186 41.7875 34.6373 41.6562C34.6061 41.875 34.5748 42.1 34.5498 42.3188C34.5811 42.0938 34.6373 41.8812 34.7186 41.6687C34.6373 41.8687 34.5498 42.0688 34.4686 42.2688C34.5686 42.0375 34.6873 41.825 34.8373 41.6313C34.7061 41.8 34.5748 41.9687 34.4436 42.1375C34.5811 41.9687 34.7311 41.8125 34.9061 41.675C34.7373 41.8063 34.5686 41.9375 34.3998 42.0688C34.5998 41.9188 34.8123 41.7937 35.0373 41.7C34.8373 41.7812 34.6373 41.8687 34.4373 41.95C34.6498 41.8687 34.8623 41.8125 35.0873 41.7812C34.8686 41.8125 34.6436 41.8437 34.4248 41.8687C34.9561 41.8062 35.5123 41.8438 36.0498 41.8438C37.2623 41.8438 38.4811 41.8438 39.6936 41.8438C41.5061 41.8438 43.3186 41.8438 45.1311 41.8438C47.3498 41.8438 49.5686 41.8438 51.7873 41.8438C54.2186 41.8438 56.6561 41.8438 59.0873 41.8438C61.5436 41.8438 63.9998 41.8438 66.4623 41.8438C68.7498 41.8438 71.0436 41.8438 73.3311 41.8438C75.2623 41.8438 77.1873 41.8438 79.1186 41.8438C80.4998 41.8438 81.8748 41.8438 83.2561 41.8438C83.8936 41.8438 84.5248 41.8438 85.1623 41.8438C85.2998 41.8438 85.4373 41.85 85.5748 41.8687C85.3561 41.8375 85.1311 41.8063 84.9123 41.7812C85.1373 41.8125 85.3498 41.8687 85.5623 41.95C85.3623 41.8687 85.1623 41.7812 84.9623 41.7C85.1936 41.8 85.4061 41.9188 85.5998 42.0688C85.4311 41.9375 85.2623 41.8063 85.0936 41.675C85.2623 41.8125 85.4186 41.9625 85.5561 42.1375C85.4248 41.9687 85.2936 41.8 85.1623 41.6313C85.3123 41.8313 85.4373 42.0438 85.5311 42.2688C85.4498 42.0688 85.3623 41.8687 85.2811 41.6687C85.3623 41.8812 85.4186 42.0938 85.4498 42.3188C85.4186 42.1 85.3873 41.875 85.3623 41.6562C85.3811 41.7687 85.3873 41.8813 85.3873 42C85.3998 42.65 85.6561 43.3063 86.1186 43.7688C86.5498 44.2 87.2623 44.5312 87.8873 44.5C89.2248 44.4375 90.4123 43.4 90.3873 42C90.3686 40.65 89.8561 39.3938 88.9311 38.4063C88.0123 37.4313 86.7561 36.95 85.4436 36.8438C85.2873 36.8313 85.1248 36.8375 84.9623 36.8375C84.2686 36.8375 83.5748 36.8375 82.8873 36.8375C81.6123 36.8375 80.3311 36.8375 79.0561 36.8375C77.3373 36.8375 75.6123 36.8375 73.8936 36.8375C71.8811 36.8375 69.8623 36.8375 67.8498 36.8375C65.6623 36.8375 63.4686 36.8375 61.2811 36.8375C59.0623 36.8375 56.8498 36.8375 54.6311 36.8375C52.5373 36.8375 50.4436 36.8375 48.3498 36.8375C46.4936 36.8375 44.6436 36.8375 42.7873 36.8375C41.3311 36.8375 39.8686 36.8375 38.4123 36.8375C37.4748 36.8375 36.5373 36.8375 35.5998 36.8375C35.3748 36.8375 35.1498 36.8375 34.9186 36.8375C34.0373 36.8375 33.2311 37.0375 32.4311 37.4063C31.4748 37.8438 30.5873 38.7438 30.1561 39.7C29.8123 40.4625 29.6123 41.1688 29.6061 42.0188C29.6061 42.2063 29.6061 42.3937 29.6061 42.5875C29.6061 43.6312 29.6061 44.6813 29.6061 45.725C29.6061 47.4313 29.6061 49.1375 29.6061 50.85C29.6061 52.9375 29.6061 55.025 29.6061 57.1125C29.6061 59.325 29.6061 61.5437 29.6061 63.7562C29.6061 65.8187 29.6061 67.875 29.6061 69.9375C29.6061 71.5625 29.6061 73.1937 29.6061 74.8187C29.6061 75.7562 29.6061 76.6938 29.6061 77.6375C29.6061 77.8188 29.5998 78 29.6123 78.1813C29.6998 79.5 30.1873 80.75 31.1498 81.6813C32.1123 82.6125 33.3873 83.1375 34.7248 83.1625C35.1061 83.1687 35.4811 83.1625 35.8623 83.1625C36.8748 83.1625 37.8873 83.1625 38.9061 83.1625C40.4311 83.1625 41.9561 83.1625 43.4811 83.1625C45.3686 83.1625 47.2561 83.1625 49.1436 83.1625C51.2686 83.1625 53.3998 83.1625 55.5248 83.1625C57.7373 83.1625 59.9436 83.1625 62.1561 83.1625C64.3311 83.1625 66.5061 83.1625 68.6873 83.1625C70.6811 83.1625 72.6686 83.1625 74.6623 83.1625C76.3248 83.1625 77.9873 83.1625 79.6498 83.1625C80.8561 83.1625 82.0686 83.1625 83.2748 83.1625C83.8811 83.1625 84.4873 83.1625 85.0998 83.1625C86.0248 83.1625 86.8998 82.95 87.7186 82.525C89.3873 81.6625 90.3748 79.8125 90.3936 77.975C90.3998 77.3437 90.3936 76.7188 90.3936 76.0875C90.3936 74.6625 90.3936 73.2437 90.3936 71.8187C90.3936 69.8875 90.3936 67.95 90.3936 66.0187C90.3936 63.825 90.3936 61.6375 90.3936 59.4438C90.3936 57.275 90.3936 55.1063 90.3936 52.9375C90.3936 51.0688 90.3936 49.2062 90.3936 47.3375C90.3936 46.0312 90.3936 44.7188 90.3936 43.4125C90.3936 42.9438 90.3936 42.475 90.3936 42C90.3936 40.6938 89.2436 39.4375 87.8936 39.5C86.5373 39.5625 85.3873 40.6 85.3873 42Z" fill="#393D46"/>
<path d="M85.3877 48.8001C85.3877 51.3064 85.3877 53.8126 85.3877 56.3189C85.3877 56.6689 85.3877 57.0189 85.3877 57.3689C86.2189 56.5376 87.0564 55.7001 87.8877 54.8689C87.3877 54.8689 86.8877 54.8689 86.3877 54.8689C85.0377 54.8689 83.6877 54.8689 82.3314 54.8689C80.3314 54.8689 78.3377 54.8689 76.3377 54.8689C73.8939 54.8689 71.4439 54.8689 69.0002 54.8689C66.3314 54.8689 63.6627 54.8689 60.9939 54.8689C58.2877 54.8689 55.5814 54.8689 52.8814 54.8689C50.3689 54.8689 47.8564 54.8689 45.3439 54.8689C43.2127 54.8689 41.0814 54.8689 38.9502 54.8689C37.4252 54.8689 35.9002 54.8689 34.3689 54.8689C33.6439 54.8689 32.9189 54.8564 32.2002 54.8689C32.1689 54.8689 32.1377 54.8689 32.1064 54.8689C32.9377 55.7001 33.7752 56.5376 34.6064 57.3689C34.6064 54.8626 34.6064 52.3564 34.6064 49.8501C34.6064 49.5001 34.6064 49.1501 34.6064 48.8001C33.7752 49.6314 32.9377 50.4689 32.1064 51.3001C32.6064 51.3001 33.1064 51.3001 33.6064 51.3001C34.9564 51.3001 36.3064 51.3001 37.6627 51.3001C39.6627 51.3001 41.6564 51.3001 43.6564 51.3001C46.1002 51.3001 48.5502 51.3001 50.9939 51.3001C53.6627 51.3001 56.3314 51.3001 59.0002 51.3001C61.7064 51.3001 64.4127 51.3001 67.1127 51.3001C69.6252 51.3001 72.1377 51.3001 74.6502 51.3001C76.7814 51.3001 78.9127 51.3001 81.0439 51.3001C82.5689 51.3001 84.0939 51.3001 85.6252 51.3001C86.3502 51.3001 87.0752 51.3064 87.7939 51.3001C87.8252 51.3001 87.8564 51.3001 87.8877 51.3001C89.1939 51.3001 90.4502 50.1501 90.3877 48.8001C90.3252 47.4439 89.2877 46.3001 87.8877 46.3001C87.3877 46.3001 86.8877 46.3001 86.3877 46.3001C85.0377 46.3001 83.6877 46.3001 82.3314 46.3001C80.3314 46.3001 78.3377 46.3001 76.3377 46.3001C73.8939 46.3001 71.4439 46.3001 69.0002 46.3001C66.3314 46.3001 63.6627 46.3001 60.9939 46.3001C58.2877 46.3001 55.5814 46.3001 52.8814 46.3001C50.3689 46.3001 47.8564 46.3001 45.3439 46.3001C43.2127 46.3001 41.0814 46.3001 38.9502 46.3001C37.4252 46.3001 35.9002 46.3001 34.3689 46.3001C33.6439 46.3001 32.9189 46.2939 32.2002 46.3001C32.1689 46.3001 32.1377 46.3001 32.1064 46.3001C30.7564 46.3001 29.6064 47.4439 29.6064 48.8001C29.6064 51.3064 29.6064 53.8126 29.6064 56.3189C29.6064 56.6689 29.6064 57.0189 29.6064 57.3689C29.6064 58.7189 30.7502 59.8689 32.1064 59.8689C32.6064 59.8689 33.1064 59.8689 33.6064 59.8689C34.9564 59.8689 36.3064 59.8689 37.6627 59.8689C39.6627 59.8689 41.6564 59.8689 43.6564 59.8689C46.1002 59.8689 48.5502 59.8689 50.9939 59.8689C53.6627 59.8689 56.3314 59.8689 59.0002 59.8689C61.7064 59.8689 64.4127 59.8689 67.1127 59.8689C69.6252 59.8689 72.1377 59.8689 74.6502 59.8689C76.7814 59.8689 78.9127 59.8689 81.0439 59.8689C82.5689 59.8689 84.0939 59.8689 85.6252 59.8689C86.3502 59.8689 87.0752 59.8751 87.7939 59.8689C87.8252 59.8689 87.8564 59.8689 87.8877 59.8689C89.2377 59.8689 90.3877 58.7251 90.3877 57.3689C90.3877 54.8626 90.3877 52.3564 90.3877 49.8501C90.3877 49.5001 90.3877 49.1501 90.3877 48.8001C90.3877 47.4939 89.2377 46.2376 87.8877 46.3001C86.5377 46.3564 85.3877 47.3939 85.3877 48.8001ZM41.1627 71.2876C42.9064 71.2876 44.6502 71.2876 46.3939 71.2876C49.1627 71.2876 51.9314 71.2876 54.7002 71.2876C55.3377 71.2876 55.9752 71.2876 56.6064 71.2876C57.9127 71.2876 59.1689 70.1376 59.1064 68.7876C59.0439 67.4314 58.0064 66.2876 56.6064 66.2876C54.8627 66.2876 53.1189 66.2876 51.3752 66.2876C48.6064 66.2876 45.8377 66.2876 43.0689 66.2876C42.4314 66.2876 41.7939 66.2876 41.1627 66.2876C39.8564 66.2876 38.6002 67.4376 38.6627 68.7876C38.7189 70.1439 39.7564 71.2876 41.1627 71.2876Z" fill="#393D46"/>
</svg>
