<svg width="40" height="40" viewBox="0 0 40 40" fill="none" xmlns="http://www.w3.org/2000/svg">
<path d="M35.8672 8.75C35.8672 9.50391 35.8672 10.2617 35.8672 11.0156C35.8672 12.8203 35.8672 14.625 35.8672 16.4258C35.8672 18.6016 35.8672 20.7773 35.8672 22.9531C35.8672 24.8281 35.8672 26.7031 35.8672 28.5742C35.8672 29.457 35.8711 30.3398 35.8672 31.2227C35.8672 31.3047 35.8633 31.3828 35.8516 31.4648C35.8711 31.3281 35.8906 31.1875 35.9063 31.0508C35.8867 31.1914 35.8516 31.3242 35.8008 31.457C35.8516 31.332 35.9063 31.207 35.957 31.082C35.8945 31.2266 35.8203 31.3594 35.7266 31.4805C35.8086 31.375 35.8906 31.2695 35.9727 31.1641C35.8867 31.2695 35.793 31.3672 35.6836 31.4531C35.7891 31.3711 35.8945 31.2891 36 31.207C35.875 31.3008 35.7422 31.3789 35.6016 31.4375C35.7266 31.3867 35.8516 31.332 35.9766 31.2812C35.8438 31.332 35.7109 31.3672 35.5703 31.3867C35.707 31.3672 35.8477 31.3477 35.9844 31.332C35.6523 31.3711 35.3047 31.3477 34.9688 31.3477C34.2109 31.3477 33.4492 31.3477 32.6914 31.3477C31.5586 31.3477 30.4258 31.3477 29.293 31.3477C27.9063 31.3477 26.5195 31.3477 25.1328 31.3477C23.6133 31.3477 22.0898 31.3477 20.5703 31.3477C19.0352 31.3477 17.5 31.3477 15.9609 31.3477C14.5313 31.3477 13.0977 31.3477 11.668 31.3477C10.4609 31.3477 9.25781 31.3477 8.05078 31.3477C7.1875 31.3477 6.32812 31.3477 5.46484 31.3477C5.06641 31.3477 4.67187 31.3477 4.27344 31.3477C4.1875 31.3477 4.10156 31.3437 4.01562 31.332C4.15234 31.3516 4.29297 31.3711 4.42969 31.3867C4.28906 31.3672 4.15625 31.332 4.02344 31.2812C4.14844 31.332 4.27344 31.3867 4.39844 31.4375C4.25391 31.375 4.12109 31.3008 4 31.207C4.10547 31.2891 4.21094 31.3711 4.31641 31.4531C4.21094 31.3672 4.11328 31.2734 4.02734 31.1641C4.10937 31.2695 4.19141 31.375 4.27344 31.4805C4.17969 31.3555 4.10156 31.2227 4.04297 31.082C4.09375 31.207 4.14844 31.332 4.19922 31.457C4.14844 31.3242 4.11328 31.1914 4.09375 31.0508C4.11328 31.1875 4.13281 31.3281 4.14844 31.4648C4.12109 31.207 4.13281 30.9453 4.13281 30.6875C4.13281 30.1445 4.13281 29.6016 4.13281 29.0586C4.13281 27.2617 4.13281 25.4648 4.13281 23.668C4.13281 21.4883 4.13281 19.3047 4.13281 17.125C4.13281 15.2344 4.13281 13.3437 4.13281 11.4531C4.13281 10.5625 4.12891 9.67187 4.13281 8.77734C4.13281 8.69531 4.13672 8.61719 4.14844 8.53516C4.12891 8.67187 4.10938 8.8125 4.09375 8.94922C4.11328 8.80859 4.14844 8.67578 4.19922 8.54297C4.14844 8.66797 4.09375 8.79297 4.04297 8.91797C4.10547 8.77344 4.17969 8.64062 4.27344 8.51953C4.19141 8.625 4.10937 8.73047 4.02734 8.83594C4.11328 8.73047 4.20703 8.63281 4.31641 8.54687C4.21094 8.62891 4.10547 8.71094 4 8.79297C4.125 8.69922 4.25781 8.62109 4.39844 8.5625C4.27344 8.61328 4.14844 8.66797 4.02344 8.71875C4.15625 8.66797 4.28906 8.63281 4.42969 8.61328C4.29297 8.63281 4.15234 8.65234 4.01562 8.66797C4.34766 8.62891 4.69531 8.65234 5.03125 8.65234C5.78906 8.65234 6.55078 8.65234 7.30859 8.65234C8.44141 8.65234 9.57422 8.65234 10.707 8.65234C12.0938 8.65234 13.4805 8.65234 14.8672 8.65234C16.3867 8.65234 17.9102 8.65234 19.4297 8.65234C20.9648 8.65234 22.5 8.65234 24.0391 8.65234C25.4688 8.65234 26.9023 8.65234 28.332 8.65234C29.5391 8.65234 30.7422 8.65234 31.9492 8.65234C32.8125 8.65234 33.6719 8.65234 34.5352 8.65234C34.9336 8.65234 35.3281 8.65234 35.7266 8.65234C35.8125 8.65234 35.8984 8.65625 35.9844 8.66797C35.8477 8.64844 35.707 8.62891 35.5703 8.61328C35.7109 8.63281 35.8438 8.66797 35.9766 8.71875C35.8516 8.66797 35.7266 8.61328 35.6016 8.5625C35.7461 8.625 35.8789 8.69922 36 8.79297C35.8945 8.71094 35.7891 8.62891 35.6836 8.54687C35.7891 8.63281 35.8867 8.72656 35.9727 8.83594C35.8906 8.73047 35.8086 8.625 35.7266 8.51953C35.8203 8.64453 35.8984 8.77734 35.957 8.91797C35.9063 8.79297 35.8516 8.66797 35.8008 8.54297C35.8516 8.67578 35.8867 8.80859 35.9063 8.94922C35.8867 8.8125 35.8672 8.67187 35.8516 8.53516C35.8633 8.60547 35.8672 8.67578 35.8672 8.75C35.875 9.15625 36.0352 9.56641 36.3242 9.85547C36.5938 10.125 37.0391 10.332 37.4297 10.3125C38.2656 10.2734 39.0078 9.625 38.9922 8.75C38.9805 7.90625 38.6602 7.12109 38.082 6.50391C37.5078 5.89453 36.7227 5.59375 35.9023 5.52734C35.8047 5.51953 35.7031 5.52344 35.6016 5.52344C35.168 5.52344 34.7344 5.52344 34.3047 5.52344C33.5078 5.52344 32.707 5.52344 31.9102 5.52344C30.8359 5.52344 29.7578 5.52344 28.6836 5.52344C27.4258 5.52344 26.1641 5.52344 24.9062 5.52344C23.5391 5.52344 22.168 5.52344 20.8008 5.52344C19.4141 5.52344 18.0313 5.52344 16.6445 5.52344C15.3359 5.52344 14.0273 5.52344 12.7188 5.52344C11.5586 5.52344 10.4023 5.52344 9.24219 5.52344C8.33203 5.52344 7.41797 5.52344 6.50781 5.52344C5.92188 5.52344 5.33594 5.52344 4.75 5.52344C4.60937 5.52344 4.46875 5.52344 4.32422 5.52344C3.77344 5.52344 3.26953 5.64844 2.76953 5.87891C2.17188 6.15234 1.61719 6.71484 1.34766 7.3125C1.13281 7.78906 1.00781 8.23047 1.00391 8.76172C1.00391 8.87891 1.00391 8.99609 1.00391 9.11719C1.00391 9.76953 1.00391 10.4258 1.00391 11.0781C1.00391 12.1445 1.00391 13.2109 1.00391 14.2812C1.00391 15.5859 1.00391 16.8906 1.00391 18.1953C1.00391 19.5781 1.00391 20.9648 1.00391 22.3477C1.00391 23.6367 1.00391 24.9219 1.00391 26.2109C1.00391 27.2266 1.00391 28.2461 1.00391 29.2617C1.00391 29.8477 1.00391 30.4336 1.00391 31.0234C1.00391 31.1367 1 31.25 1.00781 31.3633C1.0625 32.1875 1.36719 32.9687 1.96875 33.5508C2.57031 34.1328 3.36719 34.4609 4.20312 34.4766C4.44141 34.4805 4.67578 34.4766 4.91406 34.4766C5.54688 34.4766 6.17969 34.4766 6.81641 34.4766C7.76953 34.4766 8.72266 34.4766 9.67578 34.4766C10.8555 34.4766 12.0352 34.4766 13.2148 34.4766C14.543 34.4766 15.875 34.4766 17.2031 34.4766C18.5859 34.4766 19.9648 34.4766 21.3477 34.4766C22.707 34.4766 24.0664 34.4766 25.4297 34.4766C26.6758 34.4766 27.918 34.4766 29.1641 34.4766C30.2031 34.4766 31.2422 34.4766 32.2813 34.4766C33.0352 34.4766 33.793 34.4766 34.5469 34.4766C34.9258 34.4766 35.3047 34.4766 35.6875 34.4766C36.2656 34.4766 36.8125 34.3437 37.3242 34.0781C38.3672 33.5391 38.9844 32.3828 38.9961 31.2344C39 30.8398 38.9961 30.4492 38.9961 30.0547C38.9961 29.1641 38.9961 28.2773 38.9961 27.3867C38.9961 26.1797 38.9961 24.9687 38.9961 23.7617C38.9961 22.3906 38.9961 21.0234 38.9961 19.6523C38.9961 18.2969 38.9961 16.9414 38.9961 15.5859C38.9961 14.418 38.9961 13.2539 38.9961 12.0859C38.9961 11.2695 38.9961 10.4492 38.9961 9.63281C38.9961 9.33984 38.9961 9.04687 38.9961 8.75C38.9961 7.93359 38.2773 7.14844 37.4336 7.1875C36.5859 7.22656 35.8672 7.875 35.8672 8.75Z" fill="#393D46"/>
<path d="M35.8672 12.9998C35.8672 14.5662 35.8672 16.1326 35.8672 17.699C35.8672 17.9178 35.8672 18.1365 35.8672 18.3553C36.3867 17.8357 36.9102 17.3123 37.4297 16.7928C37.1172 16.7928 36.8047 16.7928 36.4922 16.7928C35.6484 16.7928 34.8047 16.7928 33.957 16.7928C32.707 16.7928 31.4609 16.7928 30.2109 16.7928C28.6836 16.7928 27.1523 16.7928 25.625 16.7928C23.957 16.7928 22.2891 16.7928 20.6211 16.7928C18.9297 16.7928 17.2383 16.7928 15.5508 16.7928C13.9805 16.7928 12.4102 16.7928 10.8398 16.7928C9.50781 16.7928 8.17578 16.7928 6.84375 16.7928C5.89063 16.7928 4.9375 16.7928 3.98047 16.7928C3.52734 16.7928 3.07422 16.7849 2.625 16.7928C2.60547 16.7928 2.58594 16.7928 2.56641 16.7928C3.08594 17.3123 3.60937 17.8357 4.12891 18.3553C4.12891 16.7888 4.12891 15.2224 4.12891 13.656C4.12891 13.4373 4.12891 13.2185 4.12891 12.9998C3.60937 13.5193 3.08594 14.0428 2.56641 14.5623C2.87891 14.5623 3.19141 14.5623 3.50391 14.5623C4.34766 14.5623 5.19141 14.5623 6.03906 14.5623C7.28906 14.5623 8.53516 14.5623 9.78516 14.5623C11.3125 14.5623 12.8437 14.5623 14.3711 14.5623C16.0391 14.5623 17.707 14.5623 19.375 14.5623C21.0664 14.5623 22.7578 14.5623 24.4453 14.5623C26.0156 14.5623 27.5859 14.5623 29.1563 14.5623C30.4883 14.5623 31.8203 14.5623 33.1523 14.5623C34.1055 14.5623 35.0586 14.5623 36.0156 14.5623C36.4687 14.5623 36.9219 14.5662 37.3711 14.5623C37.3906 14.5623 37.4102 14.5623 37.4297 14.5623C38.2461 14.5623 39.0312 13.8435 38.9922 12.9998C38.9531 12.1521 38.3047 11.4373 37.4297 11.4373C37.1172 11.4373 36.8047 11.4373 36.4922 11.4373C35.6484 11.4373 34.8047 11.4373 33.957 11.4373C32.707 11.4373 31.4609 11.4373 30.2109 11.4373C28.6836 11.4373 27.1523 11.4373 25.625 11.4373C23.957 11.4373 22.2891 11.4373 20.6211 11.4373C18.9297 11.4373 17.2383 11.4373 15.5508 11.4373C13.9805 11.4373 12.4102 11.4373 10.8398 11.4373C9.50781 11.4373 8.17578 11.4373 6.84375 11.4373C5.89063 11.4373 4.9375 11.4373 3.98047 11.4373C3.52734 11.4373 3.07422 11.4334 2.625 11.4373C2.60547 11.4373 2.58594 11.4373 2.56641 11.4373C1.72266 11.4373 1.00391 12.1521 1.00391 12.9998C1.00391 14.5662 1.00391 16.1326 1.00391 17.699C1.00391 17.9178 1.00391 18.1365 1.00391 18.3553C1.00391 19.199 1.71875 19.9178 2.56641 19.9178C2.87891 19.9178 3.19141 19.9178 3.50391 19.9178C4.34766 19.9178 5.19141 19.9178 6.03906 19.9178C7.28906 19.9178 8.53516 19.9178 9.78516 19.9178C11.3125 19.9178 12.8437 19.9178 14.3711 19.9178C16.0391 19.9178 17.707 19.9178 19.375 19.9178C21.0664 19.9178 22.7578 19.9178 24.4453 19.9178C26.0156 19.9178 27.5859 19.9178 29.1563 19.9178C30.4883 19.9178 31.8203 19.9178 33.1523 19.9178C34.1055 19.9178 35.0586 19.9178 36.0156 19.9178C36.4687 19.9178 36.9219 19.9217 37.3711 19.9178C37.3906 19.9178 37.4102 19.9178 37.4297 19.9178C38.2734 19.9178 38.9922 19.2029 38.9922 18.3553C38.9922 16.7888 38.9922 15.2224 38.9922 13.656C38.9922 13.4373 38.9922 13.2185 38.9922 12.9998C38.9922 12.1834 38.2734 11.3982 37.4297 11.4373C36.5859 11.4724 35.8672 12.1209 35.8672 12.9998ZM8.22656 27.0545C9.31641 27.0545 10.4062 27.0545 11.4961 27.0545C13.2266 27.0545 14.957 27.0545 16.6875 27.0545C17.0859 27.0545 17.4844 27.0545 17.8789 27.0545C18.6953 27.0545 19.4805 26.3357 19.4414 25.492C19.4023 24.6443 18.7539 23.9295 17.8789 23.9295C16.7891 23.9295 15.6992 23.9295 14.6094 23.9295C12.8789 23.9295 11.1484 23.9295 9.41797 23.9295C9.01953 23.9295 8.62109 23.9295 8.22656 23.9295C7.41016 23.9295 6.625 24.6482 6.66406 25.492C6.69922 26.3396 7.34766 27.0545 8.22656 27.0545Z" fill="#393D46"/>
</svg>
