<svg width="56" height="56" viewBox="0 0 56 56" fill="none" xmlns="http://www.w3.org/2000/svg">
<path d="M27.9998 11.667C16.8768 11.667 8.1665 16.8003 8.1665 23.3337V32.667C8.1665 37.994 14.2168 42.5977 22.9108 43.9347C23.4009 44.1931 23.9458 44.33 24.4998 44.3337H31.4998C32.0538 44.33 32.5988 44.1931 33.0888 43.9347C41.7828 42.5977 47.8332 37.994 47.8332 32.667V23.3337C47.8332 16.8003 39.1228 11.667 27.9998 11.667ZM10.4998 32.667V28.9057C13.5102 31.8317 17.3602 33.7432 21.5108 34.3727C21.1797 34.9128 21.0029 35.5334 20.9998 36.167V40.8337C20.9998 40.955 21.0232 41.067 21.0348 41.1883C14.8072 39.7043 10.4998 36.3257 10.4998 32.667ZM32.6665 40.8337C32.6544 41.1392 32.5276 41.429 32.3114 41.6452C32.0952 41.8614 31.8054 41.9882 31.4998 42.0003H29.1665V39.667H30.3332C30.6426 39.667 30.9393 39.5441 31.1581 39.3253C31.3769 39.1065 31.4998 38.8097 31.4998 38.5003C31.4998 38.1909 31.3769 37.8942 31.1581 37.6754C30.9393 37.4566 30.6426 37.3337 30.3332 37.3337H29.1665V35.0003H31.4998C31.8093 35.0003 32.106 35.1232 32.3248 35.342C32.5436 35.5608 32.6665 35.8576 32.6665 36.167V40.8337ZM23.3332 40.8337V36.167C23.3332 35.8576 23.4561 35.5608 23.6749 35.342C23.8937 35.1232 24.1904 35.0003 24.4998 35.0003H26.8332V37.3337C26.5238 37.3337 26.227 37.4566 26.0082 37.6754C25.7894 37.8942 25.6665 38.1909 25.6665 38.5003C25.6665 38.8097 25.7894 39.1065 26.0082 39.3253C26.227 39.5441 26.5238 39.667 26.8332 39.667V42.0003H24.4998C24.1939 41.9893 23.9035 41.8629 23.6871 41.6464C23.4706 41.43 23.3442 41.1396 23.3332 40.8337V40.8337ZM34.7292 30.602C34.9625 27.7763 31.9992 26.059 29.1665 25.7323V23.399C34.6522 23.8773 38.3552 27.5897 34.7292 30.602ZM23.3332 30.3337C23.3332 29.2323 25.3282 28.0003 27.9998 28.0003C30.5385 28.0003 32.4332 29.2323 32.4332 30.3337C32.4332 31.435 30.5385 32.667 27.9998 32.667C26.1005 32.667 23.3332 31.7827 23.3332 30.3337ZM26.8332 25.744C23.4872 26.1057 20.9998 27.9817 20.9998 30.329C17.7332 27.179 21.8095 23.8377 26.8332 23.4037V25.744ZM38.0518 29.944C38.331 29.3331 38.4835 28.6718 38.4998 28.0003C38.4998 24.0733 33.8868 21.0003 27.9998 21.0003C22.1128 21.0003 17.4998 24.0733 17.4998 28.0003C17.5153 28.6742 17.6677 29.3379 17.9478 29.951C17.1714 29.5162 16.5125 28.899 16.0279 28.1526C15.5433 27.4062 15.2477 26.5532 15.1665 25.667C15.1665 21.873 21.0442 18.667 27.9998 18.667C34.9555 18.667 40.8332 21.873 40.8332 25.667C40.752 26.5532 40.4563 27.4062 39.9718 28.1526C39.4872 28.899 38.8283 29.5162 38.0518 29.951V29.944ZM45.4998 32.667C45.4998 36.3257 41.1925 39.7043 34.9648 41.1883C34.9765 41.0693 34.9998 40.955 34.9998 40.8337V36.167C34.9968 35.5334 34.82 34.9128 34.4888 34.3727C38.6395 33.7432 42.4895 31.8317 45.4998 28.9057V32.667ZM42.4828 28.4927C42.9287 27.6173 43.1629 26.6494 43.1665 25.667C43.1665 20.4333 36.5048 16.3337 27.9998 16.3337C19.4948 16.3337 12.8332 20.4333 12.8332 25.667C12.837 26.6494 13.0712 27.6172 13.5168 28.4927C12.6533 27.9204 11.9323 27.1578 11.4093 26.2635C10.8863 25.3692 10.5752 24.3669 10.4998 23.3337C10.4998 18.275 18.5148 14.0003 27.9998 14.0003C37.4848 14.0003 45.4998 18.275 45.4998 23.3337C45.4245 24.3669 45.1134 25.3692 44.5904 26.2635C44.0674 27.1578 43.3464 27.9204 42.4828 28.4927V28.4927Z" fill="#393D46"/>
</svg>
