<svg width="32" height="37" viewBox="0 0 32 37" fill="none" xmlns="http://www.w3.org/2000/svg">
<path d="M30.1219 10.2666C29.8315 9.94098 29.5088 9.64582 29.1586 9.38562C29.3024 8.25899 29.203 7.11462 28.8671 6.02964C28.5313 4.94466 27.9668 3.94428 27.2116 3.0959C25.3886 1.04127 22.2812 0 17.9749 0H7.52435C6.76936 0.00201198 6.03967 0.272366 5.46563 0.762769C4.89159 1.25317 4.51059 1.93168 4.39068 2.67709L0.0350642 30.2692C-0.0265582 30.639 -0.00678405 31.0178 0.0930084 31.3793C0.192801 31.7407 0.370211 32.076 0.612872 32.3618C0.855533 32.6476 1.15761 32.8771 1.49804 33.0342C1.83847 33.1913 2.20907 33.2723 2.58401 33.2715H7.06448L6.92657 34.1468C6.8708 34.499 6.89202 34.859 6.98876 35.2021C7.08551 35.5453 7.25547 35.8634 7.48696 36.1345C7.71845 36.4057 8.00596 36.6234 8.32968 36.7728C8.65341 36.9221 9.00566 36.9995 9.36218 36.9997H14.8018C15.5064 37.0053 16.19 36.7595 16.7297 36.3065C17.2695 35.8535 17.63 35.2228 17.7466 34.5279L18.824 27.7481L18.8421 27.6561H19.3447C26.1261 27.6561 30.3618 24.304 31.5969 17.9644C31.9736 16.6557 32.0364 15.2766 31.7802 13.9391C31.5239 12.6015 30.9558 11.3433 30.1219 10.2666V10.2666ZM8.94009 21.3658L7.73848 28.9932L7.59332 29.9078H3.49722L7.68695 3.36361H17.9749C21.2301 3.36361 23.554 4.04356 24.6889 5.32133C25.2246 5.94417 25.5982 6.68966 25.7766 7.49159C25.9549 8.29352 25.9325 9.12708 25.7113 9.91827L25.68 10.107C25.6596 10.2357 25.641 10.3613 25.607 10.5211C25.2827 12.9243 24.0817 15.1228 22.2348 16.6942C20.1614 18.1361 17.6625 18.8371 15.1417 18.6838H12.0754C11.3182 18.6813 10.5853 18.9506 10.0099 19.4428C9.4345 19.935 9.05489 20.6174 8.94009 21.3658V21.3658ZM28.2956 17.3206C27.3693 22.0769 24.5247 24.2925 19.3446 24.2925H18.5316C17.8262 24.2871 17.1421 24.5335 16.6022 24.9875C16.0624 25.4416 15.7023 26.0734 15.5868 26.7692L14.4946 33.6213L10.4117 33.6361L11.2158 28.5337L12.2436 22.054H15.1352C15.3989 22.054 15.632 22.0143 15.8888 22.0053C16.4923 21.9845 17.094 21.9613 17.6592 21.8912C18.0044 21.8482 18.3212 21.7697 18.652 21.7083C19.1104 21.6237 19.569 21.5399 19.9993 21.4203C20.3195 21.3312 20.6182 21.2165 20.9227 21.1081C21.3251 20.9654 21.7212 20.8155 22.0959 20.6395C22.3784 20.5064 22.6476 20.3585 22.9142 20.2068C23.2691 20.0058 23.6129 19.7859 23.9441 19.548C24.1834 19.3754 24.4182 19.1984 24.642 19.0081C24.9594 18.7346 25.2609 18.4432 25.5451 18.1354C25.7351 17.9327 25.9297 17.7359 26.1056 17.5178C26.3976 17.1458 26.6671 16.7568 26.9129 16.3529C27.0415 16.1474 27.1841 15.9573 27.3024 15.741C27.6431 15.1176 27.9359 14.4692 28.1782 13.8014C28.1928 13.7613 28.2137 13.7275 28.2279 13.6871C28.2346 13.6682 28.2446 13.6525 28.2512 13.6335C28.5845 14.838 28.5998 16.1084 28.2956 17.3206V17.3206Z" fill="#393D46"/>
</svg>
