<svg width="120" height="120" viewBox="0 0 120 120" fill="none" xmlns="http://www.w3.org/2000/svg">
<circle cx="60" cy="60" r="59" stroke="#9F9F9F" stroke-width="2"/>
<path d="M40.8687 29.5811C40.4749 31.3436 40.0874 33.1061 39.6937 34.8686C39.0562 37.7498 38.4187 40.6248 37.7812 43.5061C37.6249 44.2186 37.4624 44.9311 37.3062 45.6436C36.8624 47.6623 36.6437 49.7498 36.7624 51.8186C37.0687 57.0436 39.1624 62.0186 42.7249 65.8686C44.4687 67.7498 46.5937 69.3561 48.8874 70.5061C51.5187 71.8248 54.3062 72.5998 57.2312 72.8623C62.5437 73.3373 68.0999 71.7311 72.3312 68.4873C74.4999 66.8248 76.3499 64.8811 77.8187 62.5686C79.1499 60.4811 80.1437 58.1123 80.6874 55.6998C81.2437 53.2373 81.4187 50.6686 81.1062 48.1561C80.9624 47.0373 80.7562 45.9436 80.5124 44.8498C79.9374 42.2561 79.3624 39.6623 78.7874 37.0686C78.2624 34.6998 77.7374 32.3373 77.2124 29.9686C77.1812 29.8373 77.1562 29.7061 77.1249 29.5748C77.0062 29.0498 76.6374 28.5936 76.2312 28.2748C75.7937 27.9373 75.2812 27.7373 74.7187 27.7373C73.6749 27.7373 72.6312 27.7373 71.5874 27.7373C69.0812 27.7373 66.5749 27.7373 64.0687 27.7373C61.0499 27.7373 58.0312 27.7373 55.0062 27.7373C52.3874 27.7373 49.7687 27.7373 47.1437 27.7373C45.8749 27.7373 44.5999 27.7186 43.3249 27.7373C43.3062 27.7373 43.2874 27.7373 43.2749 27.7373C41.9687 27.7373 40.7124 28.8873 40.7749 30.2373C40.8374 31.5936 41.8749 32.7373 43.2749 32.7373C44.3187 32.7373 45.3624 32.7373 46.4062 32.7373C48.9124 32.7373 51.4187 32.7373 53.9249 32.7373C56.9437 32.7373 59.9624 32.7373 62.9874 32.7373C65.6062 32.7373 68.2249 32.7373 70.8499 32.7373C72.1187 32.7373 73.3937 32.7623 74.6687 32.7373C74.6874 32.7373 74.7062 32.7373 74.7187 32.7373C73.9124 32.1248 73.1124 31.5123 72.3062 30.8998C72.7374 32.8561 73.1749 34.8123 73.6062 36.7748C74.2624 39.7186 74.9124 42.6686 75.5687 45.6123C75.7999 46.6436 76.0437 47.6748 76.1812 48.7248C76.1499 48.5061 76.1187 48.2811 76.0937 48.0623C76.3249 49.8123 76.3187 51.5748 76.0874 53.3248C76.1187 53.1061 76.1499 52.8811 76.1749 52.6623C75.9374 54.3811 75.4812 56.0623 74.8124 57.6623C74.8937 57.4623 74.9812 57.2623 75.0624 57.0623C74.3999 58.6311 73.5374 60.1123 72.4999 61.4686C72.6312 61.2998 72.7624 61.1311 72.8937 60.9623C71.8499 62.3123 70.6437 63.5186 69.2999 64.5561C69.4687 64.4248 69.6374 64.2936 69.8062 64.1623C68.4624 65.1936 66.9999 66.0436 65.4499 66.7061C65.6499 66.6248 65.8499 66.5373 66.0499 66.4561C64.4312 67.1373 62.7312 67.6061 60.9874 67.8436C61.2062 67.8123 61.4312 67.7811 61.6499 67.7561C59.8874 67.9873 58.1062 67.9873 56.3499 67.7561C56.5687 67.7873 56.7937 67.8186 57.0124 67.8436C55.2687 67.6061 53.5687 67.1373 51.9499 66.4561C52.1499 66.5373 52.3499 66.6248 52.5499 66.7061C50.9937 66.0436 49.5312 65.1873 48.1937 64.1623C48.3624 64.2936 48.5312 64.4248 48.6999 64.5561C47.3562 63.5123 46.1437 62.3061 45.1062 60.9623C45.2374 61.1311 45.3687 61.2998 45.4999 61.4686C44.4624 60.1123 43.6062 58.6373 42.9374 57.0623C43.0187 57.2623 43.1062 57.4623 43.1874 57.6623C42.5187 56.0623 42.0624 54.3811 41.8249 52.6623C41.8562 52.8811 41.8874 53.1061 41.9124 53.3248C41.6812 51.5748 41.6749 49.8123 41.9062 48.0623C41.8749 48.2811 41.8437 48.5061 41.8187 48.7248C41.9437 47.7936 42.1562 46.8748 42.3562 45.9561C42.6312 44.7061 42.9062 43.4623 43.1874 42.2123C43.8624 39.1623 44.5437 36.1061 45.2187 33.0561C45.3812 32.3373 45.5374 31.6186 45.6999 30.8998C45.8437 30.2436 45.7937 29.5623 45.4499 28.9748C45.1437 28.4561 44.5499 27.9623 43.9562 27.8248C43.3187 27.6811 42.5999 27.7123 42.0312 28.0748C41.4874 28.4311 41.0124 28.9436 40.8687 29.5811Z" fill="#393D46"/>
<path d="M56.5 70.469C56.5 72.419 56.5 74.369 56.5 76.3128C56.5 79.419 56.5 82.519 56.5 85.6253C56.5 86.3378 56.5 87.044 56.5 87.7565C56.5 89.0628 57.65 90.319 59 90.2565C60.3563 90.194 61.5 89.1565 61.5 87.7565C61.5 85.8065 61.5 83.8565 61.5 81.9128C61.5 78.8065 61.5 75.7065 61.5 72.6003C61.5 71.8878 61.5 71.1815 61.5 70.469C61.5 69.1628 60.35 67.9065 59 67.969C57.6437 68.0315 56.5 69.069 56.5 70.469Z" fill="#393D46"/>
<path d="M47.344 90.2563C48.119 90.2563 48.894 90.2563 49.669 90.2563C51.519 90.2563 53.369 90.2563 55.219 90.2563C57.469 90.2563 59.719 90.2563 61.9628 90.2563C63.9003 90.2563 65.8378 90.2563 67.769 90.2563C68.7128 90.2563 69.6628 90.2751 70.6065 90.2563C70.619 90.2563 70.6315 90.2563 70.644 90.2563C71.9503 90.2563 73.2065 89.1063 73.144 87.7563C73.0815 86.4001 72.044 85.2563 70.644 85.2563C69.869 85.2563 69.094 85.2563 68.319 85.2563C66.469 85.2563 64.619 85.2563 62.769 85.2563C60.519 85.2563 58.269 85.2563 56.0253 85.2563C54.0878 85.2563 52.1503 85.2563 50.219 85.2563C49.2753 85.2563 48.3253 85.2376 47.3815 85.2563C47.369 85.2563 47.3565 85.2563 47.344 85.2563C46.0378 85.2563 44.7815 86.4063 44.844 87.7563C44.9065 89.1126 45.944 90.2563 47.344 90.2563ZM62.8628 52.6376C62.394 51.3063 61.9253 49.9688 61.4565 48.6376C60.7128 46.5126 59.969 44.3876 59.219 42.2626C59.0503 41.7751 58.8753 41.2938 58.7065 40.8063C57.6815 41.8313 56.6565 42.8563 55.6315 43.8813C57.2065 44.1063 58.7753 44.3251 60.3503 44.5501C60.5753 44.5813 60.8003 44.6126 61.0253 44.6438C61.469 44.7626 61.9128 44.7626 62.3565 44.6438C62.7815 44.5251 63.1503 44.3126 63.4628 44.0001C64.1253 43.3376 64.2878 42.4563 64.1065 41.5688C63.8253 40.2251 63.5503 38.8751 63.269 37.5313C62.819 35.3751 62.3753 33.2188 61.9253 31.0626C61.8253 30.5688 61.719 30.0751 61.619 29.5876C61.494 28.9938 60.9815 28.3938 60.469 28.0938C59.9315 27.7813 59.144 27.6501 58.544 27.8438C57.9378 28.0376 57.3565 28.4126 57.0503 28.9938C56.7253 29.6126 56.6565 30.2313 56.8003 30.9188C57.0815 32.2626 57.3565 33.6126 57.6378 34.9563C58.0878 37.1126 58.5315 39.2688 58.9815 41.4251C59.0815 41.9188 59.1878 42.4126 59.2878 42.9001C60.3128 41.8751 61.3378 40.8501 62.3628 39.8251C60.7878 39.6001 59.219 39.3813 57.644 39.1563C57.419 39.1251 57.194 39.0938 56.969 39.0626C56.5253 38.9438 56.0815 38.9438 55.6378 39.0626C55.2128 39.1813 54.844 39.3938 54.5315 39.7063C53.9315 40.3063 53.6003 41.3126 53.8878 42.1376C54.3565 43.4688 54.8253 44.8063 55.294 46.1376C56.0378 48.2626 56.7815 50.3876 57.5315 52.5126C57.7003 53.0001 57.8753 53.4813 58.044 53.9688C58.2628 54.5876 58.6128 55.1251 59.194 55.4626C59.7315 55.7751 60.519 55.9063 61.119 55.7126C61.7253 55.5188 62.3065 55.1438 62.6128 54.5626C62.9128 53.9938 63.0878 53.2688 62.8628 52.6376Z" fill="#393D46"/>
</svg>
