<svg width="160" height="48" viewBox="0 0 160 48" fill="none" xmlns="http://www.w3.org/2000/svg">
<rect x="80" width="80" height="48" fill="white"/>
<path d="M106.5 24.1999C106.5 23.7892 106.658 23.3954 106.939 23.105C107.22 22.8146 107.602 22.6515 108 22.6515L128.385 22.6515L126.435 20.6541C126.152 20.3625 125.994 19.9671 125.994 19.5547C125.994 19.1424 126.152 18.7469 126.435 18.4554C126.717 18.1638 127.1 18 127.5 18C127.899 18 128.282 18.1638 128.565 18.4554L133.065 23.1005C133.273 23.3183 133.414 23.5948 133.47 23.8951C133.526 24.1955 133.495 24.5063 133.38 24.7883C133.267 25.071 133.076 25.3131 132.831 25.4839C132.585 25.6548 132.296 25.7467 132 25.7483L108 25.7483C107.602 25.7483 107.22 25.5851 106.939 25.2948C106.658 25.0044 106.5 24.6105 106.5 24.1999Z" fill="#393D46"/>
<path d="M126 28.8454C125.999 28.6416 126.036 28.4396 126.111 28.251C126.186 28.0623 126.296 27.8907 126.435 27.746L130.935 23.1009C131.217 22.8093 131.6 22.6455 132 22.6455C132.198 22.6455 132.393 22.6857 132.576 22.7639C132.759 22.842 132.925 22.9565 133.065 23.1009C133.205 23.2452 133.316 23.4166 133.391 23.6053C133.467 23.7939 133.506 23.9961 133.506 24.2002C133.506 24.6126 133.347 25.008 133.065 25.2996L128.565 29.9447C128.425 30.0899 128.259 30.2051 128.077 30.2837C127.894 30.3623 127.698 30.4028 127.5 30.4028C127.302 30.4028 127.106 30.3623 126.923 30.2837C126.74 30.2051 126.574 30.0899 126.435 29.9447C126.296 29.8001 126.186 29.6285 126.111 29.4398C126.036 29.2512 125.999 29.0492 126 28.8454Z" fill="#393D46"/>
<rect width="80" height="48" fill="white"/>
<path d="M53.5002 24.1999C53.5002 23.7892 53.3422 23.3954 53.0609 23.105C52.7796 22.8146 52.398 22.6515 52.0002 22.6515L31.6152 22.6515L33.5652 20.6541C33.8477 20.3625 34.0063 19.9671 34.0063 19.5547C34.0063 19.1424 33.8477 18.7469 33.5652 18.4554C33.2828 18.1638 32.8997 18 32.5002 18C32.1008 18 31.7177 18.1638 31.4352 18.4554L26.9352 23.1005C26.7271 23.3183 26.5861 23.5948 26.53 23.8951C26.474 24.1955 26.5053 24.5063 26.6202 24.7883C26.7327 25.071 26.9238 25.3131 27.1694 25.4839C27.415 25.6548 27.7041 25.7467 28.0002 25.7483L52.0002 25.7483C52.398 25.7483 52.7796 25.5851 53.0609 25.2948C53.3422 25.0044 53.5002 24.6105 53.5002 24.1999Z" fill="#CDCFD1"/>
<path d="M34.0003 28.8454C34.0014 28.6416 33.9636 28.4396 33.8889 28.2509C33.8143 28.0623 33.7043 27.8907 33.5653 27.746L29.0653 23.1009C28.7828 22.8093 28.3997 22.6455 28.0003 22.6455C27.8025 22.6455 27.6066 22.6857 27.4239 22.7639C27.2412 22.842 27.0751 22.9565 26.9353 23.1009C26.7954 23.2452 26.6845 23.4166 26.6088 23.6053C26.5331 23.7939 26.4941 23.9961 26.4941 24.2002C26.4941 24.6126 26.6528 25.008 26.9353 25.2996L31.4353 29.9447C31.5747 30.0899 31.7406 30.2051 31.9234 30.2837C32.1062 30.3623 32.3023 30.4028 32.5003 30.4028C32.6983 30.4028 32.8944 30.3623 33.0771 30.2837C33.2599 30.2051 33.4258 30.0899 33.5653 29.9447C33.7043 29.8001 33.8143 29.6285 33.8889 29.4398C33.9636 29.2512 34.0014 29.0492 34.0003 28.8454Z" fill="#CDCFD1"/>
</svg>
