<svg width="60" height="60" viewBox="0 0 60 60" fill="none" xmlns="http://www.w3.org/2000/svg">
<rect width="60" height="60" fill="white"/>
<path d="M18.7503 29.7497C18.7503 29.4182 18.882 29.1003 19.1164 28.8659C19.3509 28.6314 19.6688 28.4997 20.0003 28.4997L36.9878 28.4997L35.3628 26.8872C35.1274 26.6519 34.9952 26.3326 34.9952 25.9997C34.9952 25.6669 35.1274 25.3476 35.3628 25.1122C35.5982 24.8769 35.9174 24.7446 36.2503 24.7446C36.5832 24.7446 36.9024 24.8769 37.1378 25.1122L40.8878 28.8622C41.0613 29.038 41.1788 29.2612 41.2255 29.5037C41.2722 29.7462 41.246 29.9971 41.1503 30.2247C41.0565 30.453 40.8973 30.6484 40.6926 30.7863C40.488 30.9243 40.2471 30.9985 40.0003 30.9997L20.0003 30.9997C19.6688 30.9997 19.3509 30.868 19.1164 30.6336C18.882 30.3992 18.7503 30.0813 18.7503 29.7497Z" fill="#393D46"/>
<path d="M34.9998 33.4997C34.9988 33.3352 35.0303 33.1722 35.0926 33.0199C35.1548 32.8676 35.2464 32.729 35.3623 32.6122L39.1123 28.8622C39.3476 28.6269 39.6669 28.4946 39.9998 28.4946C40.1646 28.4946 40.3278 28.5271 40.4801 28.5902C40.6324 28.6532 40.7707 28.7457 40.8873 28.8622C41.0038 28.9788 41.0963 29.1172 41.1593 29.2694C41.2224 29.4217 41.2549 29.5849 41.2549 29.7497C41.2549 30.0826 41.1226 30.4019 40.8873 30.6372L37.1373 34.3872C37.0211 34.5044 36.8828 34.5974 36.7305 34.6609C36.5782 34.7243 36.4148 34.757 36.2498 34.757C36.0848 34.757 35.9214 34.7243 35.769 34.6609C35.6167 34.5974 35.4785 34.5044 35.3623 34.3872C35.2464 34.2704 35.1548 34.1319 35.0926 33.9796C35.0303 33.8273 34.9988 33.6643 34.9998 33.4997Z" fill="#393D46"/>
</svg>
