<svg width="40" height="40" viewBox="0 0 40 40" fill="none" xmlns="http://www.w3.org/2000/svg">
<rect width="40" height="40" fill="#393D46"/>
<path d="M3.33335 18.3334V8.33338C3.33335 7.89135 3.50895 7.46743 3.82151 7.15487C4.13407 6.84231 4.55799 6.66671 5.00002 6.66671H30.9834L30.5 6.18338C30.227 5.86454 30.0843 5.45442 30.1005 5.03496C30.1167 4.6155 30.2906 4.2176 30.5874 3.92077C30.8842 3.62395 31.2821 3.45006 31.7016 3.43386C32.1211 3.41766 32.5312 3.56034 32.85 3.83338L36.1833 7.16671C36.4938 7.47898 36.668 7.9014 36.668 8.34171C36.668 8.78202 36.4938 9.20444 36.1833 9.51671V9.51671L32.85 12.85C32.5312 13.1231 32.1211 13.2658 31.7016 13.2496C31.2821 13.2334 30.8842 13.0595 30.5874 12.7627C30.2906 12.4658 30.1167 12.0679 30.1005 11.6485C30.0843 11.229 30.227 10.8189 30.5 10.5L30.9834 10H6.66669V18.3334C6.66669 18.7754 6.49109 19.1993 6.17853 19.5119C5.86597 19.8245 5.44205 20 5.00002 20C4.55799 20 4.13407 19.8245 3.82151 19.5119C3.50895 19.1993 3.33335 18.7754 3.33335 18.3334V18.3334ZM35 20C34.558 20 34.1341 20.1756 33.8215 20.4882C33.5089 20.8008 33.3334 21.2247 33.3334 21.6667V30H9.01669L9.50002 29.5167C9.77306 29.1979 9.91574 28.7878 9.89954 28.3683C9.88334 27.9488 9.70945 27.5509 9.41262 27.2541C9.1158 26.9573 8.7179 26.7834 8.29844 26.7672C7.87898 26.751 7.46885 26.8937 7.15002 27.1667L3.81669 30.5C3.50627 30.8123 3.33203 31.2347 3.33203 31.675C3.33203 32.1154 3.50627 32.5378 3.81669 32.85V32.85L7.15002 36.1834C7.46885 36.4564 7.87898 36.5991 8.29844 36.5829C8.7179 36.5667 9.1158 36.3928 9.41262 36.096C9.70945 35.7992 9.88334 35.4013 9.89954 34.9818C9.91574 34.5623 9.77306 34.1522 9.50002 33.8334L9.01669 33.3334H35C35.442 33.3334 35.866 33.1578 36.1785 32.8452C36.4911 32.5327 36.6667 32.1087 36.6667 31.6667V21.6667C36.6667 21.2247 36.4911 20.8008 36.1785 20.4882C35.866 20.1756 35.442 20 35 20Z" fill="white"/>
</svg>
