<svg width="10" height="7" viewBox="0 0 10 7" fill="none" xmlns="http://www.w3.org/2000/svg">
<path d="M5.03199 6.03757C4.89965 6.03833 4.76846 6.01297 4.64595 5.96293C4.52343 5.91288 4.412 5.83915 4.31804 5.74595L0.295732 1.72365C0.106378 1.5343 0 1.27748 0 1.00969C0 0.741903 0.106378 0.485085 0.295732 0.295731C0.485085 0.106377 0.741904 0 1.00969 0C1.27748 0 1.5343 0.106377 1.72365 0.295731L5.03199 3.61413L8.34034 0.305787C8.53271 0.141047 8.78016 0.0549633 9.03323 0.0647387C9.28631 0.074514 9.52638 0.179429 9.70547 0.358516C9.88456 0.537604 9.98947 0.777674 9.99925 1.03075C10.009 1.28383 9.92294 1.53128 9.7582 1.72365L5.7359 5.74595C5.5486 5.93173 5.2958 6.03646 5.03199 6.03757Z" fill="#9F9F9F"/>
</svg>
