<svg width="160" height="160" viewBox="0 0 160 160" fill="none" xmlns="http://www.w3.org/2000/svg">
<path d="M124.913 48.9667C124.373 47.6169 123.545 46.401 122.487 45.4039C121.429 44.4068 120.166 43.6525 118.786 43.1934L103.033 37.94L98.8264 29.5267C97.9999 27.8621 96.7238 26.4621 95.1426 25.4854C93.5614 24.5086 91.7383 23.9941 89.8798 24.0001H71.4531C69.5946 23.9941 67.7715 24.5086 66.1903 25.4854C64.6091 26.4621 63.333 27.8621 62.5064 29.5267L58.2998 37.94L42.5464 43.1934C41.1669 43.6525 39.9041 44.4068 38.846 45.4039C37.7879 46.401 36.9599 47.6169 36.4198 48.9667L25.1931 77.04C24.4011 79.0086 23.9959 81.1114 23.9998 83.2333V124C23.9998 125.768 24.7022 127.464 25.9524 128.714C27.2026 129.964 28.8983 130.667 30.6664 130.667H37.3331C39.1012 130.667 40.7969 129.964 42.0472 128.714C43.2974 127.464 43.9998 125.768 43.9998 124V114.493L47.3331 103.373V110.853C47.5297 114.612 48.6766 118.259 50.6664 121.453V130.667C50.6664 132.435 51.3688 134.13 52.6191 135.381C53.8693 136.631 55.565 137.333 57.3331 137.333H104C105.768 137.333 107.464 136.631 108.714 135.381C109.964 134.13 110.666 132.435 110.666 130.667V121.453C112.657 118.259 113.803 114.612 114 110.853V103.373L117.333 114.493V124C117.333 125.768 118.035 127.464 119.286 128.714C120.536 129.964 122.232 130.667 124 130.667H130.666C132.435 130.667 134.13 129.964 135.38 128.714C136.631 127.464 137.333 125.768 137.333 124V83.2333C137.338 81.1135 136.932 79.0128 136.14 77.0467L124.913 48.9667ZM117.26 49.8667C113.704 55.2132 110.448 60.7528 107.506 66.46C107.153 67.7934 107.453 66.2467 107.333 104C104.681 104 102.137 102.946 100.262 101.071C98.3867 99.1957 97.3331 96.6522 97.3331 94C97.3331 93.116 96.9819 92.2681 96.3568 91.643C95.7317 91.0179 94.8838 90.6667 93.9998 90.6667C93.1157 90.6667 92.2679 91.0179 91.6428 91.643C91.0176 92.2681 90.6664 93.116 90.6664 94C90.6664 98.4203 92.4224 102.66 95.548 105.785C98.6736 108.911 102.913 110.667 107.333 110.667V110.853C107.195 113.151 106.487 115.378 105.273 117.333H83.9998V55.7867L101.16 44.3467C120.2 50.82 115.933 49.0934 117.26 49.8667ZM66.6664 36.1734L70.7931 43.3934L64.9931 39.5267L66.6664 36.1734ZM94.7198 36.1734L96.3931 39.5067L90.5931 43.3734L94.7198 36.1734ZM90.1464 30.7334L80.6664 47.28L71.2131 30.7334C72.5664 30.6667 88.7598 30.6667 90.1198 30.7334H90.1464ZM60.1731 44.3467L77.3331 55.7867V117.333H56.0598C54.836 115.382 54.1273 113.153 53.9998 110.853V110.667C58.4201 110.667 62.6593 108.911 65.7849 105.785C68.9105 102.66 70.6664 98.4203 70.6664 94C70.6664 93.116 70.3153 92.2681 69.6901 91.643C69.065 91.0179 68.2172 90.6667 67.3331 90.6667C66.4491 90.6667 65.6012 91.0179 64.9761 91.643C64.351 92.2681 63.9998 93.116 63.9998 94C63.9998 96.6522 62.9462 99.1957 61.0709 101.071C59.1955 102.946 56.6519 104 53.9998 104C53.8798 66.2534 54.1798 67.76 53.8264 66.46C50.8868 60.7517 47.6306 55.2119 44.0731 49.8667C45.0931 49.2667 53.3731 46.6667 60.1731 44.3467ZM30.6664 124V117.333H37.3331V124H30.6664ZM46.9131 81.5867L38.1864 110.667H30.6664V83.2333C30.6659 81.9615 30.908 80.7012 31.3798 79.52L40.4664 56.8134L47.3331 68.2534V78.7133C47.3337 79.6865 47.1922 80.6544 46.9131 81.5867ZM57.3331 130.667V124H104V130.667H57.3331ZM114 78.7133V68.2534L120.866 56.8134L129.953 79.5267C130.426 80.7051 130.668 81.9635 130.666 83.2333V110.667H123.146L114.42 81.58C114.14 80.6502 113.999 79.6843 114 78.7133ZM124 124V117.333H130.666V124H124Z" fill="#393D46"/>
</svg>
